<?xml version="1.0" encoding="UTF-8"?>
<!DOCTYPE svg PUBLIC "-//W3C//DTD SVG 1.1//EN" "http://www.w3.org/Graphics/SVG/1.1/DTD/svg11.dtd">
<!-- Creator: CorelDRAW -->
<svg xmlns="http://www.w3.org/2000/svg" xml:space="preserve" width="10.3161mm" height="10.3162mm" version="1.1" style="shape-rendering:geometricPrecision; text-rendering:geometricPrecision; image-rendering:optimizeQuality; fill-rule:evenodd; clip-rule:evenodd"
viewBox="0 0 88.66 88.66"
 xmlns:xlink="http://www.w3.org/1999/xlink"
 xmlns:xodm="http://www.corel.com/coreldraw/odm/2003">
 <defs>
  <style type="text/css">
   <![CDATA[
    .fil1 {fill:white}
    .fil0 {fill:url(#id0)}
   ]]>
  </style>
  <linearGradient id="id0" gradientUnits="userSpaceOnUse" x1="75.67" y1="12.99" x2="12.98" y2="75.68">
   <stop offset="0" style="stop-opacity:1; stop-color:#5764F0"/>
   <stop offset="0.729412" style="stop-opacity:0.913725; stop-color:#4163CE"/>
   <stop offset="1" style="stop-opacity:0.827451; stop-color:#2A62AC"/>
  </linearGradient>
 </defs>
 <g id="Camada_x0020_1">
  <metadata id="CorelCorpID_0Corel-Layer"/>
  <g id="_3139633770448">
   <path class="fil0" d="M88.66 44.33c0,24.48 -19.85,44.33 -44.33,44.33 -24.48,0 -44.33,-19.85 -44.33,-44.33 0,-24.48 19.85,-44.33 44.33,-44.33 24.48,0 44.33,19.85 44.33,44.33z"/>
   <path class="fil1" d="M52.98 40.86c3.11,-0.46 5.45,2.16 5.69,4.9 0.28,3.18 -1.67,5.84 -4.37,6.23 -3.07,0.44 -5.35,-2.13 -5.66,-4.86 -0.36,-3.18 1.66,-5.88 4.34,-6.27zm-18.64 0c3.14,-0.47 5.43,2.14 5.7,4.88 0.31,3.16 -1.66,5.79 -4.27,6.23 -3.13,0.52 -5.45,-2.12 -5.75,-4.87 -0.35,-3.18 1.67,-5.84 4.32,-6.24zm-3.62 24.71c0.24,-0.36 0.55,-0.72 0.8,-1.12 0.26,-0.41 0.52,-0.79 0.79,-1.21 0.29,-0.45 1.3,-2.17 1.43,-2.59 -1.21,-0.28 -3.59,-1.65 -4.75,-2.24 0.21,-0.32 0.86,-0.6 1.09,-0.93l3.11 1.22c6.23,2.24 12.41,2.45 18.87,1.02 1.12,-0.25 2.32,-0.63 3.37,-1l3.13 -1.24c0.34,0.34 0.73,0.56 1.09,0.89 -0.82,0.75 -3.66,1.76 -4.75,2.31 0.46,0.89 2.29,4.16 3.03,4.87 0.55,-0.11 1.3,-0.4 1.82,-0.58 0.6,-0.21 1.19,-0.42 1.77,-0.66 1.13,-0.47 2.3,-0.93 3.34,-1.46 2.89,-1.48 3.54,-1.91 6.09,-3.58 0.67,-0.44 1.15,-0.66 1.2,-1.17 0.96,-10.29 -1.32,-20.34 -6.7,-28.98 -0.3,-0.48 -0.6,-0.98 -0.92,-1.45 -0.57,-0.83 -0.47,-0.97 -1.17,-1.26 -2.61,-1.1 -4.31,-1.76 -7.11,-2.49 -1.05,-0.28 -2.93,-0.78 -3.99,-0.84 -0.52,0.69 -1.22,2.55 -1.5,2.96 -0.41,0.01 -1.06,-0.12 -1.5,-0.17 -0.54,-0.06 -1.08,-0.11 -1.62,-0.15 -1.1,-0.08 -2.2,-0.12 -3.31,-0.12 -1.11,0 -2.21,0.04 -3.31,0.12 -1.07,0.08 -2.1,0.25 -3.13,0.34 -0.16,-0.61 -1.11,-2.42 -1.44,-2.99 -1.94,0.21 -5.75,1.27 -7.62,1.95 -1.18,0.43 -2.36,0.86 -3.44,1.37 -0.41,0.19 -0.47,0.13 -0.7,0.48l-1.43 2.25c-5.57,9.17 -7.61,18.25 -6.78,28.94 0.05,0.61 0.25,0.56 1.21,1.22 2.93,2.03 6.09,3.68 9.44,5.03 1,0.4 2.54,1 3.59,1.25z"/>
  </g>
 </g>
</svg>
