<?xml version="1.0" encoding="UTF-8"?>
<!DOCTYPE svg PUBLIC "-//W3C//DTD SVG 1.1//EN" "http://www.w3.org/Graphics/SVG/1.1/DTD/svg11.dtd">
<!-- Creator: CorelDRAW -->
<svg xmlns="http://www.w3.org/2000/svg" xml:space="preserve" width="10.7866mm" height="11.0514mm" version="1.1" style="shape-rendering:geometricPrecision; text-rendering:geometricPrecision; image-rendering:optimizeQuality; fill-rule:evenodd; clip-rule:evenodd"
viewBox="0 0 35.38 36.25"
 xmlns:xlink="http://www.w3.org/1999/xlink"
 xmlns:xodm="http://www.corel.com/coreldraw/odm/2003">
 <defs>
  <style type="text/css">
   <![CDATA[
    .fil1 {fill:#171515}
    .fil2 {fill:#181616}
    .fil3 {fill:#181717}
    .fil5 {fill:#898888}
    .fil4 {fill:#969595}
    .fil0 {fill:#FEFEFE;fill-rule:nonzero}
   ]]>
  </style>
 </defs>
 <g id="Camada_x0020_1">
  <metadata id="CorelCorpID_0Corel-Layer"/>
  <path class="fil0" d="M34.61 19.33c0,9.34 -7.57,16.92 -16.92,16.92 -9.34,0 -16.92,-7.57 -16.92,-16.92 0,-9.34 7.57,-16.92 16.92,-16.92 9.35,0 16.92,7.58 16.92,16.92z"/>
  <g id="_3139441129392">
   <path class="fil1" d="M14.37 26.29l-0.3 -0.22c-1.25,0.06 -3.47,-0.82 -4.32,-1.36 -2.6,-1.67 -3.62,-5.06 -3.3,-8.3 0.08,-0.85 0.3,-1.63 0.62,-2.31 0.45,-0.94 0.52,-0.99 1.15,-1.74 -0.22,-0.95 -0.4,-1.39 -0.33,-2.53 0.04,-0.74 0.22,-1.73 0.55,-2.31 1.47,-0.17 3.3,0.87 4.28,1.5 0.87,0.56 0.38,0.31 2.23,-0.01 2.16,-0.37 4.5,-0.3 6.63,0.24 0.7,0.18 0.49,0.17 1.04,-0.2 0.94,-0.63 2.86,-1.71 4.33,-1.54 0.33,0.58 0.51,1.56 0.55,2.31 0.07,1.14 -0.12,1.58 -0.33,2.53 0.23,0.28 0.41,0.46 0.63,0.8 1.6,2.35 1.43,6.02 0.43,8.41 -0.63,1.51 -1.44,2.38 -2.65,3.17 -0.96,0.63 -3.06,1.33 -4.44,1.37 -0.22,0.18 -0.01,-0.01 -0.11,0.17 1.61,1.39 0.92,5.8 1.05,8.18 0.09,1.66 2.03,0.64 2.88,0.25 5.13,-2.36 8.95,-7.17 10.08,-12.97 1.97,-10.12 -4.68,-19.98 -14.64,-21.52 -10.66,-1.65 -19.26,6.37 -20.28,15.91 -0.32,2.96 0.07,5.55 0.92,8.13 0.38,1.15 0.91,2.24 1.46,3.18 1.06,1.82 2.59,3.67 4.21,4.94 0.89,0.7 1.66,1.24 2.75,1.85 0.57,0.32 2.62,1.39 3.33,1.1 0.65,-0.26 0.52,-1.05 0.51,-1.84 -0.01,-0.79 -0.01,-1.58 -0.02,-2.36 -6.65,1.01 -5.38,-3.01 -7.68,-4.65 -0.44,-0.31 -0.86,-0.42 -0.9,-0.98 0.63,-0.62 1.85,-0.03 2.36,0.34 1.38,1.01 1.41,2.64 3.43,3.15 0.9,0.23 2.04,0 2.78,-0.36 0.28,-0.26 -0.01,-1.1 1.09,-2.33z"/>
   <path class="fil2" d="M11.09 29.79c0.3,0.15 0.65,0.26 0.74,-0.21 -0.28,-0.3 -0.71,-0.36 -0.74,0.21z"/>
   <path class="fil2" d="M12.47 29.63c0.38,0.22 0.81,-0 0.69,-0.28 -0.1,-0.22 -0.74,-0.34 -0.69,0.28z"/>
   <path class="fil2" d="M9.74 29.22c-0.05,0.11 -0.11,-0.16 -0.07,0.19 0.04,0.27 0.35,0.3 0.49,0.27 0.43,-0.09 0.13,-0.76 -0.42,-0.46z"/>
   <path class="fil2" d="M9.08 28.97c0.05,-0.46 -0.12,-0.66 -0.57,-0.58 -0.08,0.45 0.14,0.61 0.57,0.58z"/>
   <path class="fil1" d="M7.7 27.37c-0.11,0.39 0.04,0.57 0.46,0.56 0.05,-0.48 -0.06,-0.68 -0.46,-0.56z"/>
   <path class="fil3" d="M7.04 26.41c-0.01,0.02 -0.22,0.13 0.02,0.38 0.19,0.21 0.22,0.11 0.39,0.06 0,-0.35 -0.1,-0.49 -0.41,-0.44z"/>
   <path class="fil3" d="M6.23 25.82c0.08,0.35 0.07,0.36 0.48,0.28 -0.04,-0.3 -0.2,-0.45 -0.48,-0.28z"/>
   <path class="fil4" d="M14.37 26.29c0.08,-0.11 0.12,0.1 0.05,-0.15l-0.35 -0.07 0.3 0.22z"/>
   <path class="fil5" d="M21.03 26.28c0.1,-0.18 -0.11,0.01 0.11,-0.17l-0.21 0c-0.01,0.34 -0.02,0.04 0.1,0.17z"/>
  </g>
 </g>
</svg>
