<?xml version="1.0" encoding="UTF-8"?>
<!DOCTYPE svg PUBLIC "-//W3C//DTD SVG 1.1//EN" "http://www.w3.org/Graphics/SVG/1.1/DTD/svg11.dtd">
<!-- Creator: CorelDRAW -->
<svg xmlns="http://www.w3.org/2000/svg" xml:space="preserve" width="10.3161mm" height="10.316mm" version="1.1" style="shape-rendering:geometricPrecision; text-rendering:geometricPrecision; image-rendering:optimizeQuality; fill-rule:evenodd; clip-rule:evenodd"
viewBox="0 0 117.48 117.48"
 xmlns:xlink="http://www.w3.org/1999/xlink"
 xmlns:xodm="http://www.corel.com/coreldraw/odm/2003">
 <defs>
  <style type="text/css">
   <![CDATA[
    .fil1 {fill:#FEFEFE;fill-rule:nonzero}
    .fil0 {fill:url(#id0)}
   ]]>
  </style>
  <linearGradient id="id0" gradientUnits="userSpaceOnUse" x1="100.28" y1="17.2" x2="17.2" y2="100.27">
   <stop offset="0" style="stop-opacity:1; stop-color:#F9D889"/>
   <stop offset="0.211765" style="stop-opacity:1; stop-color:#FBB257"/>
   <stop offset="0.380392" style="stop-opacity:1; stop-color:#F0647C"/>
   <stop offset="0.521569" style="stop-opacity:1; stop-color:#E5509A"/>
   <stop offset="0.741176" style="stop-opacity:1; stop-color:#7A57A2"/>
   <stop offset="1" style="stop-opacity:1; stop-color:#5261AA"/>
  </linearGradient>
 </defs>
 <g id="Camada_x0020_1">
  <metadata id="CorelCorpID_0Corel-Layer"/>
  <path class="fil0" d="M117.48 58.74c0,32.44 -26.3,58.74 -58.74,58.74 -32.44,0 -58.74,-26.3 -58.74,-58.74 0,-32.44 26.3,-58.74 58.74,-58.74 32.44,0 58.74,26.29 58.74,58.74z"/>
  <path class="fil1" d="M76.97 36.51c-2.23,0 -4.04,1.81 -4.04,4.04 0,2.23 1.81,4.04 4.04,4.04 2.23,0 4.04,-1.81 4.04,-4.04 0,-2.23 -1.81,-4.04 -4.04,-4.04z"/>
  <path class="fil1" d="M59.02 69.52c-5.99,0 -10.87,-4.88 -10.87,-10.87 0,-5.99 4.88,-10.86 10.87,-10.86 5.99,0 10.86,4.87 10.86,10.86 0,5.99 -4.87,10.87 -10.86,10.87zm0 -27.83c-9.35,0 -16.96,7.61 -16.96,16.96 0,9.35 7.61,16.96 16.96,16.96 9.35,0 16.96,-7.61 16.96,-16.96 0,-9.35 -7.61,-16.96 -16.96,-16.96z"/>
  <path class="fil1" d="M44.99 30.7c-7.83,0 -14.21,6.37 -14.21,14.21l0 27.5c0,7.84 6.37,14.21 14.21,14.21l27.5 0c7.83,0 14.21,-6.37 14.21,-14.21l0 -27.5c0,-7.84 -6.37,-14.21 -14.21,-14.21l-27.5 0zm27.5 62.39l-27.5 0c-11.41,0 -20.69,-9.28 -20.69,-20.69l0 -27.5c0,-11.41 9.28,-20.69 20.69,-20.69l27.5 0c11.41,0 20.69,9.28 20.69,20.69l0 27.5c0,11.41 -9.28,20.69 -20.69,20.69z"/>
 </g>
</svg>
