<?xml version="1.0" encoding="UTF-8"?>
<!DOCTYPE svg PUBLIC "-//W3C//DTD SVG 1.1//EN" "http://www.w3.org/Graphics/SVG/1.1/DTD/svg11.dtd">
<!-- Creator: CorelDRAW -->
<svg xmlns="http://www.w3.org/2000/svg" xml:space="preserve" width="10.3161mm" height="10.3162mm" version="1.1" style="shape-rendering:geometricPrecision; text-rendering:geometricPrecision; image-rendering:optimizeQuality; fill-rule:evenodd; clip-rule:evenodd"
viewBox="0 0 88.28 88.28"
 xmlns:xlink="http://www.w3.org/1999/xlink"
 xmlns:xodm="http://www.corel.com/coreldraw/odm/2003">
 <defs>
  <style type="text/css">
   <![CDATA[
    .fil1 {fill:#FEFEFE;fill-rule:nonzero}
    .fil0 {fill:url(#id0)}
   ]]>
  </style>
  <linearGradient id="id0" gradientUnits="userSpaceOnUse" x1="75.35" y1="12.93" x2="12.93" y2="75.35">
   <stop offset="0" style="stop-opacity:1; stop-color:#007FAF"/>
   <stop offset="1" style="stop-opacity:1; stop-color:#2A62AC"/>
  </linearGradient>
 </defs>
 <g id="Camada_x0020_1">
  <metadata id="CorelCorpID_0Corel-Layer"/>
  <path class="fil0" d="M88.28 44.14c0,24.38 -19.76,44.14 -44.14,44.14 -24.38,0 -44.14,-19.76 -44.14,-44.14 0,-24.38 19.76,-44.14 44.14,-44.14 24.38,0 44.14,19.76 44.14,44.14z"/>
  <path class="fil1" d="M29.9 22.27c2.73,0 4.95,2.22 4.95,4.95 0,2.73 -2.22,4.95 -4.95,4.95 -2.74,0 -4.95,-2.22 -4.95,-4.95 0,-2.73 2.22,-4.95 4.95,-4.95zm-4.28 13.65l8.55 0 0 27.46 -8.55 0 0 -27.46z"/>
  <path class="fil1" d="M39.53 35.92l8.19 0 0 3.75 0.11 0c1.14,-2.16 3.93,-4.44 8.08,-4.44 8.64,0 10.24,5.68 10.24,13.08l0 15.06 -8.53 0 0 -13.35c0,-3.19 -0.06,-7.28 -4.44,-7.28 -4.44,0 -5.12,3.47 -5.12,7.05l0 13.58 -8.53 0 0 -27.46z"/>
 </g>
</svg>
