<?xml version="1.0" encoding="UTF-8"?>
<!DOCTYPE svg PUBLIC "-//W3C//DTD SVG 1.1//EN" "http://www.w3.org/Graphics/SVG/1.1/DTD/svg11.dtd">
<!-- Creator: CorelDRAW -->
<svg xmlns="http://www.w3.org/2000/svg" xml:space="preserve" width="10.3161mm" height="10.3162mm" version="1.1" style="shape-rendering:geometricPrecision; text-rendering:geometricPrecision; image-rendering:optimizeQuality; fill-rule:evenodd; clip-rule:evenodd"
viewBox="0 0 173.46 173.46"
 xmlns:xlink="http://www.w3.org/1999/xlink"
 xmlns:xodm="http://www.corel.com/coreldraw/odm/2003">
 <defs>
  <style type="text/css">
   <![CDATA[
    .fil4 {fill:#6A569D}
    .fil3 {fill:#6B55A3}
    .fil0 {fill:#6C4FBB}
    .fil2 {fill:#FDFCFA}
    .fil1 {fill:#FDFDFD}
   ]]>
  </style>
 </defs>
 <g id="Camada_x0020_1">
  <metadata id="CorelCorpID_0Corel-Layer"/>
  <path class="fil0" d="M173.46 86.74c0,47.9 -38.83,86.73 -86.73,86.73 -47.9,0 -86.73,-38.83 -86.73,-86.73 0,-47.9 38.83,-86.74 86.73,-86.74 47.9,0 86.73,38.84 86.73,86.74z"/>
  <g id="_3139836673600">
   <polygon class="fil1" points="54.83,66.93 55.38,66.93 55.38,71.33 54.83,71.33 54.83,71.88 53.73,71.88 53.73,71.33 53.18,71.33 53.18,70.78 52.08,70.78 52.08,70.23 50.98,70.23 50.98,69.68 47.13,69.68 47.13,70.23 46.03,70.23 46.03,70.78 45.48,70.78 45.48,71.33 44.93,71.33 44.93,72.43 44.38,72.43 44.38,76.28 44.93,76.28 44.93,76.83 45.48,76.83 45.48,77.93 46.58,77.93 46.58,78.48 47.13,78.48 47.13,79.03 48.23,79.03 48.23,79.58 48.78,79.58 48.78,80.13 49.88,80.13 49.88,80.68 50.98,80.68 50.98,81.23 51.53,81.23 51.53,81.78 52.63,81.78 52.63,82.33 53.73,82.33 53.73,82.88 54.28,82.88 54.28,83.43 55.38,83.43 55.38,83.98 56.48,83.98 56.48,84.53 57.03,84.53 57.03,85.08 58.13,85.08 58.13,85.63 58.68,85.63 58.68,86.18 59.78,86.18 59.78,86.73 60.88,86.73 60.88,87.28 61.98,87.28 61.98,87.83 63.08,87.83 63.08,88.38 64.73,88.38 64.73,88.93 71.33,88.93 71.33,88.38 73.53,88.38 73.53,87.83 74.63,87.83 74.63,87.28 75.18,87.28 75.18,86.73 76.28,86.73 76.28,86.18 76.83,86.18 76.83,85.63 77.93,85.63 77.93,85.08 81.78,85.08 81.78,85.63 82.88,85.63 82.88,86.18 85.63,86.18 85.63,85.63 86.73,85.63 86.73,85.08 87.83,85.08 87.83,84.53 88.93,84.53 88.93,83.98 90.03,83.98 90.03,83.43 92.78,83.43 92.78,83.98 93.88,83.98 93.88,84.53 94.98,84.53 94.98,85.08 96.08,85.08 96.08,85.63 96.63,85.63 96.63,86.18 97.73,86.18 97.73,86.73 98.83,86.73 98.83,87.28 99.38,87.28 99.38,87.83 100.48,87.83 100.48,88.38 101.03,88.38 101.03,88.93 102.13,88.93 102.13,89.48 103.23,89.48 103.23,90.03 105.43,90.03 105.43,88.93 105.98,88.93 105.98,88.38 106.53,88.38 106.53,87.83 107.08,87.83 107.08,86.73 107.63,86.73 107.63,86.18 108.18,86.18 108.18,85.63 108.73,85.63 108.73,84.53 109.28,84.53 109.28,83.98 109.83,83.98 109.83,83.43 110.38,83.43 110.38,82.33 110.93,82.33 110.93,81.78 111.48,81.78 111.48,81.23 112.03,81.23 112.03,80.13 112.58,80.13 112.58,79.58 113.13,79.58 113.13,78.48 113.68,78.48 113.68,77.93 114.23,77.93 114.23,77.38 114.78,77.38 114.78,76.28 115.33,76.28 115.33,75.73 115.88,75.73 115.88,75.18 116.43,75.18 116.43,74.08 116.98,74.08 116.98,73.53 117.53,73.53 117.53,72.98 118.08,72.98 118.08,71.88 118.63,71.88 118.63,71.33 119.18,71.33 119.18,70.78 119.73,70.78 119.73,69.68 120.28,69.68 120.28,69.13 120.83,69.13 120.83,68.58 121.38,68.58 121.38,67.48 121.93,67.48 121.93,66.93 122.48,66.93 122.48,66.38 123.03,66.38 123.03,65.28 123.58,65.28 123.58,64.73 124.13,64.73 124.13,64.18 124.68,64.18 124.68,63.08 125.23,63.08 125.23,62.53 125.78,62.53 125.78,61.43 126.33,61.43 126.33,60.88 126.88,60.88 126.88,60.33 127.43,60.33 127.43,59.23 127.98,59.23 127.98,58.68 128.53,58.68 128.53,58.13 129.08,58.13 129.08,57.03 129.63,57.03 129.63,56.48 130.18,56.48 130.18,55.93 130.73,55.93 130.73,54.83 131.28,54.83 131.28,54.28 131.83,54.28 131.83,53.18 132.38,53.18 132.38,50.43 131.28,50.43 131.28,49.88 130.18,49.88 130.18,49.33 126.33,49.33 126.33,48.78 123.58,48.78 123.58,47.13 124.13,47.13 124.13,46.58 124.68,46.58 124.68,46.03 125.23,46.03 125.23,44.93 125.78,44.93 125.78,44.38 126.33,44.38 126.33,43.28 126.88,43.28 126.88,42.73 127.43,42.73 127.43,42.18 127.98,42.18 127.98,41.08 128.53,41.08 128.53,40.53 129.08,40.53 129.08,39.98 129.63,39.98 129.63,38.88 130.18,38.88 130.18,38.33 130.73,38.33 130.73,37.78 131.28,37.78 131.28,36.68 131.83,36.68 131.83,36.13 132.38,36.13 132.38,33.93 131.83,33.93 131.83,33.38 129.63,33.38 129.63,32.83 125.23,32.83 125.23,32.28 123.03,32.28 123.03,31.73 119.18,31.73 119.18,31.18 116.43,31.18 116.43,31.73 115.88,31.73 115.88,32.28 115.33,32.28 115.33,32.83 114.78,32.83 114.78,33.38 114.23,33.38 114.23,34.48 113.68,34.48 113.68,35.03 113.13,35.03 113.13,35.58 112.58,35.58 112.58,36.68 112.03,36.68 112.03,37.23 111.48,37.23 111.48,38.33 110.93,38.33 110.93,38.88 110.38,38.88 110.38,39.43 109.83,39.43 109.83,40.53 109.28,40.53 109.28,41.08 108.73,41.08 108.73,41.63 108.18,41.63 108.18,45.48 108.73,45.48 108.73,46.58 107.63,46.58 107.63,46.03 104.88,46.03 104.88,45.48 98.28,45.48 98.28,46.03 97.73,46.03 97.73,46.58 97.18,46.58 97.18,47.13 96.63,47.13 96.63,47.68 96.08,47.68 96.08,48.78 95.53,48.78 95.53,49.33 94.98,49.33 94.98,49.88 94.43,49.88 94.43,50.98 93.88,50.98 93.88,51.53 93.33,51.53 93.33,52.63 92.78,52.63 92.78,53.18 92.23,53.18 92.23,53.73 91.68,53.73 91.68,54.83 91.13,54.83 91.13,55.38 90.58,55.38 90.58,55.93 90.03,55.93 90.03,57.03 89.48,57.03 89.48,57.58 88.93,57.58 88.93,58.13 88.38,58.13 88.38,59.23 87.83,59.23 87.83,59.78 87.28,59.78 87.28,60.33 86.73,60.33 86.73,61.43 86.18,61.43 86.18,61.98 85.63,61.98 85.63,62.53 85.08,62.53 85.08,63.63 84.53,63.63 84.53,64.18 83.98,64.18 83.98,65.28 83.43,65.28 83.43,65.83 82.88,65.83 82.88,66.38 82.33,66.38 82.33,67.48 81.78,67.48 81.78,68.03 81.23,68.03 81.23,68.58 80.68,68.58 80.68,69.68 80.13,69.68 80.13,70.23 79.58,70.23 79.58,70.78 79.03,70.78 79.03,71.88 78.48,71.88 78.48,72.43 77.93,72.43 77.93,72.98 77.38,72.98 77.38,73.53 75.73,73.53 75.73,72.98 75.18,72.98 75.18,72.43 74.08,72.43 74.08,71.88 72.98,71.88 72.98,71.33 72.43,71.33 72.43,70.78 71.33,70.78 71.33,70.23 70.23,70.23 70.23,69.68 69.68,69.68 69.68,69.13 68.58,69.13 68.58,68.58 67.48,68.58 67.48,68.03 66.93,68.03 66.93,67.48 65.83,67.48 65.83,66.93 64.73,66.93 64.73,66.38 64.18,66.38 64.18,65.83 63.08,65.83 63.08,65.28 62.53,65.28 62.53,64.73 61.43,64.73 61.43,64.18 60.33,64.18 60.33,63.63 59.78,63.63 59.78,63.08 58.68,63.08 58.68,62.53 57.58,62.53 57.58,61.98 54.83,61.98 54.83,62.53 54.28,62.53 54.28,63.08 53.73,63.08 53.73,65.83 54.28,65.83 54.28,66.38 54.83,66.38 "/>
   <polygon class="fil2" points="51.53,109.83 50.43,109.83 50.43,110.38 49.88,110.38 49.88,110.93 49.33,110.93 49.33,111.48 48.78,111.48 48.78,112.03 48.23,112.03 48.23,112.58 47.68,112.58 47.68,113.13 47.13,113.13 47.13,114.78 46.58,114.78 46.58,116.98 46.03,116.98 46.03,118.63 45.48,118.63 45.48,120.28 44.93,120.28 44.93,121.93 44.38,121.93 44.38,124.13 43.83,124.13 43.83,126.33 43.28,126.33 43.28,128.53 42.73,128.53 42.73,130.73 42.18,130.73 42.18,132.93 41.63,132.93 41.63,134.03 41.08,134.03 41.08,136.78 40.53,136.78 40.53,137.88 39.98,137.88 39.98,140.63 39.43,140.63 39.43,142.28 41.08,142.28 41.08,141.73 41.63,141.73 41.63,141.18 42.18,141.18 42.18,140.63 42.73,140.63 42.73,140.08 43.83,140.08 43.83,139.53 44.38,139.53 44.38,138.98 44.93,138.98 44.93,138.43 45.48,138.43 45.48,137.88 46.03,137.88 46.03,137.33 46.58,137.33 46.58,136.78 47.13,136.78 47.13,136.23 47.68,136.23 47.68,135.68 48.23,135.68 48.23,135.13 48.78,135.13 48.78,134.58 49.88,134.58 49.88,134.03 50.43,134.03 50.43,133.48 50.98,133.48 50.98,132.93 51.53,132.93 51.53,132.38 52.08,132.38 52.08,131.83 52.63,131.83 52.63,131.28 53.18,131.28 53.18,130.73 53.73,130.73 53.73,130.18 54.28,130.18 54.28,129.63 54.83,129.63 54.83,129.08 55.38,129.08 55.38,128.53 55.93,128.53 55.93,127.98 56.48,127.98 56.48,127.43 57.58,127.43 57.58,126.88 58.13,126.88 58.13,126.33 58.68,126.33 58.68,125.78 59.23,125.78 59.23,125.23 59.78,125.23 59.78,124.68 60.33,124.68 60.33,124.13 60.88,124.13 60.88,123.58 61.43,123.58 61.43,123.03 61.98,123.03 61.98,122.48 62.53,122.48 62.53,120.83 63.08,120.83 63.08,119.18 63.63,119.18 63.63,115.33 63.08,115.33 63.08,114.23 61.98,114.23 61.98,113.68 61.43,113.68 61.43,113.13 60.33,113.13 60.33,112.58 59.23,112.58 59.23,112.03 58.13,112.03 58.13,111.48 57.58,111.48 57.58,110.93 56.48,110.93 56.48,110.38 55.93,110.38 55.93,109.83 54.83,109.83 54.83,109.28 51.53,109.28 "/>
   <polygon class="fil2" points="53.73,90.03 54.28,90.03 54.28,91.13 54.83,91.13 54.83,91.68 55.38,91.68 55.38,92.78 55.93,92.78 55.93,93.88 56.48,93.88 56.48,94.43 57.03,94.43 57.03,98.83 56.48,98.83 56.48,99.93 55.93,99.93 55.93,102.13 55.38,102.13 55.38,104.33 54.83,104.33 54.83,106.53 55.38,106.53 55.38,107.08 55.93,107.08 55.93,107.63 57.03,107.63 57.03,108.18 57.58,108.18 57.58,108.73 58.68,108.73 58.68,109.28 59.23,109.28 59.23,109.83 60.33,109.83 60.33,110.38 60.88,110.38 60.88,110.93 61.98,110.93 61.98,111.48 63.08,111.48 63.08,112.03 64.18,112.03 64.18,112.58 65.28,112.58 65.28,112.03 66.38,112.03 66.38,111.48 66.93,111.48 66.93,110.93 67.48,110.93 67.48,110.38 68.03,110.38 68.03,109.83 68.58,109.83 68.58,109.28 69.13,109.28 69.13,108.73 69.68,108.73 69.68,108.18 70.78,108.18 70.78,107.63 71.33,107.63 71.33,107.08 71.88,107.08 71.88,106.53 72.43,106.53 72.43,105.98 72.98,105.98 72.98,105.43 78.48,105.43 78.48,105.98 81.78,105.98 81.78,105.43 82.33,105.43 82.33,104.88 83.43,104.88 83.43,103.78 82.33,103.78 82.33,103.23 81.78,103.23 81.78,102.68 80.68,102.68 80.68,102.13 79.58,102.13 79.58,101.58 79.03,101.58 79.03,101.03 77.93,101.03 77.93,100.48 76.83,100.48 76.83,99.93 76.28,99.93 76.28,99.38 75.18,99.38 75.18,98.83 74.08,98.83 74.08,98.28 73.53,98.28 73.53,97.73 72.43,97.73 72.43,97.18 71.88,97.18 71.88,96.63 70.78,96.63 70.78,96.08 69.68,96.08 69.68,95.53 69.13,95.53 69.13,94.98 68.03,94.98 68.03,94.43 66.93,94.43 66.93,93.88 66.38,93.88 66.38,93.33 65.28,93.33 65.28,92.78 64.18,92.78 64.18,92.23 63.63,92.23 63.63,91.68 62.53,91.68 62.53,91.13 61.98,91.13 61.98,90.58 60.88,90.58 60.88,90.03 59.78,90.03 59.78,89.48 59.23,89.48 59.23,88.93 58.13,88.93 58.13,88.38 57.03,88.38 57.03,87.83 56.48,87.83 56.48,87.28 55.38,87.28 55.38,86.73 54.28,86.73 54.28,86.18 53.73,86.18 "/>
   <polygon class="fil3" points="54.83,66.93 54.83,66.38 54.28,66.38 54.28,65.83 53.73,65.83 53.73,63.08 54.28,63.08 54.28,62.53 54.83,62.53 54.83,61.98 57.03,61.98 57.03,61.43 56.48,61.43 56.48,60.88 54.83,60.88 54.83,61.43 53.73,61.43 53.73,61.98 53.18,61.98 53.18,62.53 52.63,62.53 52.63,66.38 53.18,66.38 53.18,66.93 "/>
   <polygon class="fil3" points="50.98,69.68 50.98,70.23 52.08,70.23 52.08,70.78 53.18,70.78 53.18,71.33 53.73,71.33 53.73,71.88 54.83,71.88 54.83,71.33 55.38,71.33 55.38,67.48 54.83,67.48 54.83,69.13 54.28,69.13 54.28,69.68 53.73,69.68 53.73,70.23 53.18,70.23 53.18,69.68 "/>
   <polygon class="fil4" points="126.33,48.78 126.33,47.68 125.78,47.68 125.78,44.93 125.23,44.93 125.23,46.03 124.68,46.03 124.68,46.58 124.13,46.58 124.13,47.13 123.58,47.13 123.58,48.78 "/>
   <polygon class="fil3" points="131.83,36.68 133.48,36.68 133.48,36.13 134.03,36.13 134.03,33.93 133.48,33.93 133.48,33.38 131.83,33.38 131.83,33.93 132.38,33.93 132.38,36.13 131.83,36.13 "/>
  </g>
 </g>
</svg>
