<?xml version="1.0" encoding="UTF-8"?>
<!DOCTYPE svg PUBLIC "-//W3C//DTD SVG 1.1//EN" "http://www.w3.org/Graphics/SVG/1.1/DTD/svg11.dtd">
<!-- Creator: CorelDRAW -->
<svg xmlns="http://www.w3.org/2000/svg" xml:space="preserve" width="10.316mm" height="10.316mm" version="1.1" style="shape-rendering:geometricPrecision; text-rendering:geometricPrecision; image-rendering:optimizeQuality; fill-rule:evenodd; clip-rule:evenodd"
viewBox="0 0 349.22 349.22"
 xmlns:xlink="http://www.w3.org/1999/xlink"
 xmlns:xodm="http://www.corel.com/coreldraw/odm/2003">
 <defs>
  <style type="text/css">
   <![CDATA[
    .fil0 {fill:#6441A4}
    .fil1 {fill:#FEFEFE}
   ]]>
  </style>
 </defs>
 <g id="Camada_x0020_1">
  <metadata id="CorelCorpID_0Corel-Layer"/>
  <g id="_3139630834160">
   <path class="fil0" d="M81.8 100.02c0,-0.57 1.89,-2.27 2.33,-2.74l26.63 -28.47c0.57,-0.61 9.23,-10.23 9.81,-10.23l146.23 0 0 115.23c0,0.53 -1.47,1.82 -1.85,2.23l-59.8 63.93c-0.85,0.91 -7.43,8.07 -7.76,8.22 -0.92,0.39 -29.81,-0.22 -30.73,0.17 -0.51,0.22 -1.57,1.59 -2.01,2.06l-4.84 5.09c-0.31,0.36 -0.56,0.68 -0.9,1.05l-9.69 10.36c-0.37,0.39 -0.58,0.61 -0.97,0.99l-9.67 10.38c-0.36,0.38 -0.59,0.63 -0.95,1.01l-1.89 2.02c-1.29,1.39 -7.08,7.85 -7.76,8.04l0 -41.1 -46.17 0 0 -148.24zm85.8 -99.73l-9.2 0.57c-20.16,1.83 -40.78,7.79 -58.74,16.17 -8.21,3.84 -19.76,10.42 -27.27,16.16 -2.14,1.63 -4.1,3.04 -6.16,4.68 -2.17,1.72 -4.07,3.33 -6.05,5l-2.06 1.84c-0.31,0.29 -0.4,0.3 -0.79,0.68l-4.97 4.64c-0.28,0.27 -0.49,0.52 -0.7,0.75l-2.76 2.78c-1.72,1.86 -3.69,3.66 -5.23,5.69l-5.02 5.93c-9.45,11.13 -19.39,28.62 -24.85,41.5 -4.29,10.13 -8.12,21.88 -10.48,34.08 -1.24,6.41 -2.19,12.95 -2.76,19.77 -2.67,31.94 4.04,64.97 17.99,92.33 4.51,8.85 10.71,19.46 16.94,27.2 5.26,6.53 6.79,8.6 12.61,14.82 0.48,0.52 0.77,0.84 1.33,1.44l5.6 5.46c2.02,2.15 5.01,4.57 7.23,6.41 14.38,11.91 30.27,21.83 47.66,28.55 21.81,8.43 45.95,13.5 71.72,12.28 35.65,-1.69 67.94,-13.06 95.43,-33.14 5.46,-3.98 10.73,-8.21 15.74,-12.84l6.36 -6.18c1.36,-1.24 6.39,-6.75 7.82,-8.47l3.08 -3.78c0.25,-0.33 0.44,-0.46 0.69,-0.78l2.92 -3.78c8.64,-11.03 16.17,-24.51 21.84,-37.81 9.04,-21.2 14.81,-47.85 13.47,-75.69 -1.69,-35.21 -13.19,-65.4 -30.85,-91.16 -1.58,-2.31 -3.09,-4.29 -4.68,-6.45l-4.84 -6.11c-1.58,-2.08 -7.44,-8.52 -9.13,-10.11l-4.18 -4.12c-4.75,-4.44 -9.56,-8.58 -14.71,-12.58 -22.04,-17.12 -48.28,-28.24 -75.16,-33.15 -10.89,-1.99 -26.86,-3.55 -37.87,-2.58z"/>
   <path class="fil1" d="M128.28 75.26l122.44 0c0.36,0 0.47,0.12 0.47,0.5l0 89.45c0,0.56 -1.75,2.12 -2.17,2.57l-27.42 29.31c-1.57,1.68 -0.94,1.48 -3.19,1.47l-27.26 0c-1.02,-0 -1.46,-0.19 -2.02,0.37 -4.25,4.19 -24.59,26.79 -26.18,27.94l0 -28.3 -34.66 0 -0 -123.31zm-46.49 24.76l0 148.24 46.17 0 0 41.1c0.68,-0.19 6.47,-6.65 7.76,-8.04l1.89 -2.02c0.36,-0.38 0.59,-0.63 0.95,-1.01l9.67 -10.38c0.39,-0.39 0.6,-0.6 0.97,-0.99l9.69 -10.36c0.35,-0.37 0.59,-0.7 0.9,-1.05l4.84 -5.09c0.44,-0.47 1.5,-1.85 2.01,-2.06 0.91,-0.39 29.8,0.22 30.73,-0.17 0.33,-0.14 6.91,-7.31 7.76,-8.22l59.8 -63.93c0.39,-0.41 1.85,-1.7 1.85,-2.23l0 -115.23 -146.23 0c-0.58,0 -9.24,9.63 -9.81,10.23l-26.63 28.47c-0.44,0.47 -2.33,2.17 -2.33,2.74z"/>
   <path class="fil0" d="M212.58 105.25c0,-1.5 -0.06,-1.44 0.53,-1.49l0.22 0.01c0.03,0 0.08,0 0.11,0.01 2.48,0.09 12.42,0.18 14.89,-0.04 -0.27,0.7 0,-0.07 0,0.67l-0.05 46.13c0.02,2.48 0.47,3 -0.97,3 -1.12,-0 -14.46,0.13 -14.51,-0.08 -0.01,-0.03 -0.04,-0.02 -0.07,-0.03 -0.3,-0.34 -0.09,-10.08 -0.1,-11.26l-0.05 -36.92zm-42.23 -0.67c0,-0.77 0.19,0.13 0,-0.84 2.1,0.19 13.51,0.18 15.6,0 -0.27,0.7 0,-0.07 0,0.67l0 49.19c-0.74,-0.32 -13.14,0.2 -15.11,-0.04 -0.63,-0.07 -0.42,-0.01 -0.46,-1.07l-0.03 -47.92zm-42.07 94l34.66 0 0 28.3c1.59,-1.15 21.94,-23.74 26.18,-27.94 0.57,-0.56 1.01,-0.37 2.02,-0.37l27.26 0c2.25,0.01 1.62,0.2 3.19,-1.47l27.42 -29.31c0.42,-0.45 2.17,-2.01 2.17,-2.57l0 -89.45c0,-0.39 -0.11,-0.5 -0.47,-0.5l-122.44 0 0 123.31z"/>
   <path class="fil1" d="M212.58 105.25l0.05 36.92c0.01,1.18 -0.2,10.92 0.1,11.26 0.02,0.01 0.06,0 0.07,0.03 0.05,0.21 13.4,0.08 14.51,0.08 1.44,0 0.99,-0.52 0.97,-3l0.05 -46.13c0,-0.74 -0.27,0.03 0,-0.67 -2.47,0.22 -12.41,0.14 -14.89,0.04 -0.03,-0 -0.08,-0.01 -0.11,-0.01l-0.22 -0.01c-0.59,0.05 -0.53,-0.01 -0.53,1.49z"/>
   <path class="fil1" d="M170.35 104.57l0.03 47.92c0.04,1.06 -0.17,1 0.46,1.07 1.97,0.23 14.37,-0.29 15.11,0.04l0 -49.19c0,-0.74 -0.27,0.03 0,-0.67 -2.09,0.18 -13.51,0.19 -15.6,0 0.19,0.97 0,0.07 0,0.84z"/>
  </g>
 </g>
</svg>
