<?xml version="1.0" encoding="UTF-8"?>
<!DOCTYPE svg PUBLIC "-//W3C//DTD SVG 1.1//EN" "http://www.w3.org/Graphics/SVG/1.1/DTD/svg11.dtd">
<!-- Creator: CorelDRAW -->
<svg xmlns="http://www.w3.org/2000/svg" xml:space="preserve" width="40px" height="28px" version="1.1" style="shape-rendering:geometricPrecision; text-rendering:geometricPrecision; image-rendering:optimizeQuality; fill-rule:evenodd; clip-rule:evenodd"
viewBox="0 0 40 28.57"
 xmlns:xlink="http://www.w3.org/1999/xlink"
 xmlns:xodm="http://www.corel.com/coreldraw/odm/2003">
 <defs>
  <style type="text/css">
   <![CDATA[
    .fil0 {fill:#FEFEFE;fill-rule:nonzero}
   ]]>
  </style>
 </defs>
 <g id="Camada_x0020_1">
  <metadata id="CorelCorpID_0Corel-Layer"/>
  <path class="fil0" d="M4.29 0c-2.35,0 -4.29,1.94 -4.29,4.29l0 20c0,2.34 1.94,4.28 4.29,4.28l31.42 0c2.35,0 4.29,-1.94 4.29,-4.28l0 -20c0,-2.35 -1.94,-4.29 -4.29,-4.29l-31.42 0zm0 2.86l31.42 0c0.81,0 1.43,0.62 1.43,1.43l0 20c0,0.8 -0.62,1.42 -1.43,1.42l-31.42 0c-0.81,0 -1.43,-0.62 -1.43,-1.42l0 -20c0,-0.81 0.62,-1.43 1.43,-1.43zm2.94 7.5l-2.94 7.85 1.78 0 0.58 -1.78 3.35 0 0.58 1.78 3.35 0 0 -5.89 2.14 5.89 1.56 0 2.19 -5.71 0 5.71 1.56 0 0 -7.85 -2.54 0 -1.97 5.31 -1.96 -5.31 -2.77 0 0 7.45 -2.76 -7.45 -2.15 0zm16.3 0l0 7.85 6.29 0 1.97 -2.54 1.96 2.54 1.96 0 -2.94 -3.92 2.94 -3.93 -2.14 0 -1.96 2.36 -1.61 -2.36 -6.47 0zm-15.32 1.56l0.99 2.77 -1.97 0 0.98 -2.77zm16.88 0.22l3.93 0 1.6 2.15 -1.78 2.36 -3.75 0 0 -1.56 3.57 0 0 -1.61 -3.57 0 0 -1.34z"/>
 </g>
</svg>
