<?xml version="1.0" encoding="UTF-8"?>
<!DOCTYPE svg PUBLIC "-//W3C//DTD SVG 1.1//EN" "http://www.w3.org/Graphics/SVG/1.1/DTD/svg11.dtd">
<!-- Creator: CorelDRAW -->
<svg xmlns="http://www.w3.org/2000/svg" xml:space="preserve" width="50px" height="38px" version="1.1" style="shape-rendering:geometricPrecision; text-rendering:geometricPrecision; image-rendering:optimizeQuality; fill-rule:evenodd; clip-rule:evenodd" viewBox="0 0 41.42 31.84"
  xmlns:xlink="http://www.w3.org/1999/xlink"
  xmlns:xodm="http://www.corel.com/coreldraw/odm/2003">
  <defs>
    <style type="text/css">
      <![CDATA[
    .fil0 {fill:#FFF}
   ]]>
    </style>
  </defs>
  <g id="Camada_x0020_1">
    <metadata id="CorelCorpID_0Corel-Layer"/>
    <path class="fil0" d="M22.22 0l-2.49 0 -0.94 0.26c-2.6,0.61 -4.88,2.37 -6.08,4.69 -0.84,1.63 0,0.68 -2.79,1.96 -0.55,0.25 -1.41,0.51 -1.06,1.11 0.59,0.27 2.15,-0.41 2.95,-0.5 -0.42,3.25 0.46,5.9 2.6,8 0.41,0.41 1.43,1.53 2.18,1.28 0.15,-0.58 -0.12,-0.63 -0.5,-0.99 -0.7,-0.69 -1.51,-2.11 -1.83,-3.15 -0.51,-1.66 -0.53,-4.09 0.3,-5.56 4.06,-0.46 9.67,0.16 12.79,1.9 3.29,1.85 3.23,4.23 -0.03,6.2 -0.93,0.57 -2.49,1.05 -2.05,1.58 0.43,0.5 7.7,-2.09 7.36,-6.11 -0.37,-4.37 -8.45,-5.8 -12.54,-5.8 -1.59,-0.01 -2.83,0.23 -4.34,0.34 0.63,-1.42 3.63,-2.94 5.69,-3.13 1.34,-0.12 2.67,0.09 3.82,0.51 1.86,0.68 2.17,1.62 2.95,1.39 0.35,-1.31 -3.25,-3.36 -5.4,-3.8 -0.17,-0.03 -0.09,-0.01 -0.26,-0.05l-0.25 -0.09c-0.02,-0.01 -0.05,-0.03 -0.08,-0.04z"/>
    <path class="fil0" d="M1.59 27.44c1.34,-0.47 2.04,0.17 1.99,1.5 -0.04,1.23 -0.72,1.74 -2.04,1.62l0.05 -3.12zm-1.59 -2.97l0 7.08c0.25,0.13 0.55,0.23 0.9,0.29l1.96 0c0.37,-0.1 0.77,-0.3 1.09,-0.5 0.39,-0.29 0.52,-0.38 0.72,-0.72 1.22,-1.97 0.27,-5.5 -3.13,-4.4l-0.01 -2.65c-0.69,0.11 -1.09,0.53 -1.53,0.9z"/>
    <path class="fil0" d="M18.64 30.51c-1.26,0.36 -1.97,-0.33 -1.96,-1.57 0,-1.32 0.61,-1.93 2.02,-1.6 0.07,0.59 0.14,2.75 -0.06,3.17zm-1.5 1.33l1.97 0 1.15 -0.35 0 -7.9c-0.41,0.05 -1.1,0.45 -1.32,0.68 -0.33,0.37 -0.21,1.21 -0.21,1.8 -0.98,-0.01 -1.71,-0.08 -2.44,0.42 -1.66,1.12 -1.55,3.95 -0.09,4.89 0.18,0.14 0.54,0.3 0.94,0.46z"/>
    <path class="fil0" d="M22.65 28.25c0.22,-1.32 1.89,-1.6 2.09,0l-2.09 0zm0.64 3.59l1.71 0c0.3,-0.05 0.56,-0.19 0.81,-0.31l-0.02 -1.16c-1.23,0.14 -3.02,0.63 -3.12,-0.99 0.75,-0.01 2.9,0.12 3.46,-0.09 0.12,-1.32 -0.16,-2.44 -1.04,-2.96 -1.9,-1.13 -4.62,0.48 -3.87,3.55 0.38,1.42 1.4,1.84 2.07,1.96z"/>
    <path class="fil0" d="M38.23 27.38c1.87,-0.93 2.04,2.67 0.93,3.13 -1.77,0.75 -2.02,-2.58 -0.93,-3.13zm-0.27 4.46l1.47 0c0.56,-0.37 0.81,-0.27 1.28,-0.81 0.48,-0.55 0.4,-0.66 0.6,-1.17l0.11 -0.23 0 -1.38c-0.59,-1.09 -0.35,-1.6 -1.67,-2.08 -1.09,-0.39 -2.45,-0.03 -3,0.58 -0.77,0.86 -1.51,3.72 0.91,4.92l0.3 0.17z"/>
    <path class="fil0" d="M12.8 30.56c-2.12,0.52 -2.58,-1.61 0.01,-1.26l-0.01 1.26zm-1.56 1.28l1.87 0c0.43,-0.08 0.81,-0.2 1.15,-0.34 0.08,-1.09 0.18,-3.7 -0.29,-4.51 -0.52,-0.91 -2.61,-1.41 -3.78,-0.74l0.04 1.04c0.67,0.06 2.26,-0.57 2.58,0.93 -1.38,0.14 -2.61,-0.09 -3.06,1.15 -0.2,0.55 -0.08,1.24 0.2,1.64 0.33,0.5 0.78,0.6 1.29,0.83z"/>
    <path class="fil0" d="M20.88 15.95l0 6.79c0.65,0 1.72,0.09 2.29,-0.09 0.21,-0.57 0.08,-5.69 0.1,-7.12 0,-0.48 0.03,-0.94 -0.51,-0.77 -0.31,0.1 -1.7,0.93 -1.88,1.19z"/>
    <path class="fil0" d="M27.15 30.4c-0.15,-0.02 -0.32,-0.09 -0.33,0.13 -0.23,1.19 0.74,1.28 0.97,1.31l1.71 0c0.14,-0.06 2.12,-0.82 1.26,-2.59 -0.43,-0.89 -2.57,-1.09 -2.22,-1.77 0.57,-0.61 1.53,0.03 2.15,-0.15 0.05,-0.51 0.16,-0.94 -0.28,-1.14 -0.29,-0.12 -1.08,-0.19 -1.42,-0.19 -2.37,0.04 -2.7,2.26 -1.18,3.09 0.82,0.45 1.7,0.34 1.53,1.35 -0.85,0.36 -1.3,0.13 -2.19,-0.04z"/>
    <path class="fil0" d="M33.64 31.84l1.52 0 0.78 -0.31 -0.55 -1.1c-2.85,0.79 -2.43,-2.37 -1.73,-2.93 0.49,-0.38 1.18,-0.15 1.76,-0.11 0.17,-0.37 0.39,-0.75 0.51,-1.04 -1.94,-0.76 -3.61,-0.3 -4.18,1.42 -0.37,1.12 -0.18,2.74 0.8,3.52 0.43,0.34 0.69,0.31 1.09,0.55z"/>
    <path class="fil0" d="M6.11 26.56l0.01 5.16 1.49 -0.01c0.08,-3.41 -0.5,-4.06 1.89,-4.41 0.03,-0.31 0.09,-0.63 0,-0.92 -0.23,-0.81 -1.53,-0.04 -1.94,0.37 -0.26,-0.51 0.02,-0.68 -0.62,-0.69 -0.05,0 -0.57,0.02 -0.6,0.03 -0.26,0.04 -0.23,-0.03 -0.23,0.47z"/>
    <path class="fil0" d="M18.6 17.71l0 4.56c0,0.57 0.25,0.62 1.64,0.46l0.02 -6.46c-0.36,0.05 -0.71,0.33 -1.01,0.49 -0.44,0.25 -0.65,0.32 -0.65,0.95z"/>
  </g>
</svg>
