<?xml version="1.0" encoding="UTF-8"?>
<!DOCTYPE svg PUBLIC "-//W3C//DTD SVG 1.1//EN" "http://www.w3.org/Graphics/SVG/1.1/DTD/svg11.dtd">
<!-- Creator: CorelDRAW -->
<svg xmlns="http://www.w3.org/2000/svg" xml:space="preserve" width="32px" height="25px" version="1.1" style="shape-rendering:geometricPrecision; text-rendering:geometricPrecision; image-rendering:optimizeQuality; fill-rule:evenodd; clip-rule:evenodd"
viewBox="0 0 0.72 0.55"
 xmlns:xlink="http://www.w3.org/1999/xlink"
 xmlns:xodm="http://www.corel.com/coreldraw/odm/2003">
 <defs>
  <style type="text/css">
   <![CDATA[
    .str0 {stroke:#197EC1;stroke-width:0.05;stroke-miterlimit:22.9256}
    .fil1 {fill:#FEFEFE}
    .fil0 {fill:#197EC1}
   ]]>
  </style>
 </defs>
 <g id="Camada_x0020_1">
  <metadata id="CorelCorpID_0Corel-Layer"/>
  <g id="_2847429656256">
   <path class="fil0 str0" d="M0.44 0.03c0.14,-0.01 0.25,0.11 0.25,0.25 0,0.13 -0.11,0.24 -0.25,0.25l-0.16 0c-0.14,0 -0.25,-0.11 -0.25,-0.25 0,-0.14 0.11,-0.25 0.25,-0.25l0.16 0z"/>
   <circle class="fil1" cx="0.28" cy="0.28" r="0.25"/>
   <path class="fil0" d="M0.33 0.15c0.05,0.02 0.09,0.07 0.09,0.13 0,0.05 -0.04,0.1 -0.09,0.13l0 -0.26zm-0.11 0.26c-0.05,-0.03 -0.08,-0.08 -0.08,-0.13 0,-0.06 0.03,-0.11 0.08,-0.13l0 0.26z"/>
  </g>
 </g>
</svg>
