<?xml version="1.0" encoding="UTF-8"?>
<!DOCTYPE svg PUBLIC "-//W3C//DTD SVG 1.1//EN" "http://www.w3.org/Graphics/SVG/1.1/DTD/svg11.dtd">
<!-- Creator: CorelDRAW -->
<svg xmlns="http://www.w3.org/2000/svg" xml:space="preserve" width="50px" height="9px" version="1.1" style="shape-rendering:geometricPrecision; text-rendering:geometricPrecision; image-rendering:optimizeQuality; fill-rule:evenodd; clip-rule:evenodd"
viewBox="0 0 1.53 0.28"
 xmlns:xlink="http://www.w3.org/1999/xlink"
 xmlns:xodm="http://www.corel.com/coreldraw/odm/2003">
 <defs>
  <style type="text/css">
   <![CDATA[
    .str0 {stroke:black;stroke-width:0.03;stroke-miterlimit:22.9256}
    .fil2 {fill:#FEFEFE}
    .fil1 {fill:#373435}
    .fil0 {fill:#F58634}
   ]]>
  </style>
   <mask id="id0">
  <radialGradient id="id1" gradientUnits="userSpaceOnUse" cx="0.68" cy="0.01" r="0" fx="0.68" fy="0.01">
   <stop offset="0" style="stop-opacity:0.0901961; stop-color:white"/>
   <stop offset="0.231373" style="stop-opacity:0.545098; stop-color:white"/>
   <stop offset="1" style="stop-opacity:1; stop-color:white"/>
  </radialGradient>
    <rect style="fill:url(#id1)" x="0.64" y="-0.03" width="0.33" height="0.34"/>
   </mask>
 </defs>
 <g id="Camada_x0020_1">
  <metadata id="CorelCorpID_0Corel-Layer"/>
  <path class="fil0" style="mask:url(#id0)" d="M0.81 0.01c0.07,0 0.12,0.06 0.12,0.13 0,0.07 -0.05,0.13 -0.12,0.13 -0.08,0 -0.13,-0.06 -0.13,-0.13 0,-0.07 0.05,-0.13 0.13,-0.13z"/>
  <g id="_2848385652544">
   <path class="fil1 str0" d="M0.06 0.06c0.03,0 0.06,0 0.08,0.02 0.03,0.03 0.05,0.14 -0.08,0.14l0 -0.16zm-0.05 0.2c0.05,0 0.11,0 0.15,-0.02 0.07,-0.04 0.07,-0.16 -0.01,-0.2 -0.04,-0.03 -0.08,-0.02 -0.14,-0.02l0 0.24z"/>
   <path class="fil1 str0" d="M1.38 0.06c0.03,0 0.06,0 0.06,0.03 0,0.04 -0.03,0.04 -0.06,0.04l0 -0.07zm0.05 0.1c0.03,-0.01 0.04,-0.01 0.05,-0.04 0.01,-0.03 0.01,-0.05 -0.01,-0.07 -0.02,-0.04 -0.09,-0.03 -0.14,-0.03l0 0.24 0.05 0c0,-0.02 0,-0.03 0,-0.05l0 -0.04c0,-0.01 0,-0.01 0,-0.01 0.02,0.01 0.05,0.08 0.07,0.1l0.05 0c-0.01,-0.03 -0.06,-0.08 -0.07,-0.1z"/>
   <path class="fil1 str0" d="M0.43 0.07c0.01,0 0,0 0.01,-0.01 0.01,-0.01 0.01,-0.01 0.01,-0.02 -0.02,-0.02 -0.07,-0.03 -0.11,-0.01 -0.03,0.02 -0.05,0.07 -0.01,0.1 0.03,0.03 0.09,0.02 0.08,0.06 0,0.02 -0.02,0.03 -0.04,0.03 -0.03,0 -0.03,-0.02 -0.05,-0.03l-0.02 0.03c0.01,0.06 0.18,0.07 0.16,-0.05 -0.01,-0.05 -0.05,-0.05 -0.09,-0.07 -0.04,-0.02 0.02,-0.07 0.06,-0.03z"/>
   <path class="fil1 str0" d="M0.92 0.02l0.1 0.25 0.02 -0.01c0.01,0 0.1,-0.22 0.11,-0.24 -0.06,0 -0.05,-0.01 -0.07,0.04 -0.01,0.03 -0.03,0.09 -0.05,0.12l-0.06 -0.16 -0.05 0z"/>
   <path class="fil1 str0" d="M1.17 0.26l0.13 0 0 -0.04 -0.09 0c0,-0.01 0,-0.05 0,-0.07l0.09 0 0 -0.03c-0.03,0 -0.07,0 -0.09,-0.01l0 -0.05 0.09 0 0 -0.04 -0.13 0 0 0.24z"/>
   <path class="fil1 str0" d="M0.66 0.2c-0.01,0 -0.02,0.02 -0.04,0.02 -0.1,0.02 -0.13,-0.12 -0.05,-0.16 0.05,-0.02 0.08,0.01 0.09,0.02l0 -0.05c-0.05,-0.02 -0.08,-0.02 -0.13,0 -0.02,0.02 -0.05,0.06 -0.05,0.11 0,0.05 0.03,0.09 0.06,0.11 0.04,0.02 0.08,0.02 0.12,0l0 -0.05z"/>
   <polygon class="fil1 str0" points="0.23,0.26 0.28,0.26 0.28,0.02 0.23,0.02 "/>
  </g>
  <g id="_2848385668864">
   <path class="fil2" d="M0.06 0.06c0.03,0 0.06,0 0.08,0.02 0.03,0.03 0.05,0.14 -0.08,0.14l0 -0.16zm-0.05 0.2c0.05,0 0.11,0 0.15,-0.02 0.07,-0.04 0.07,-0.16 -0.01,-0.2 -0.04,-0.03 -0.08,-0.02 -0.14,-0.02l0 0.24z"/>
   <path class="fil2" d="M1.38 0.06c0.03,0 0.06,0 0.06,0.03 0,0.04 -0.03,0.04 -0.06,0.04l0 -0.07zm0.05 0.1c0.03,-0.01 0.04,-0.01 0.05,-0.04 0.01,-0.03 0.01,-0.05 -0.01,-0.07 -0.02,-0.04 -0.09,-0.03 -0.14,-0.03l0 0.24 0.05 0c0,-0.02 0,-0.03 0,-0.05l0 -0.04c0,-0.01 0,-0.01 0,-0.01 0.02,0.01 0.05,0.08 0.07,0.1l0.05 0c-0.01,-0.03 -0.06,-0.08 -0.07,-0.1z"/>
   <path class="fil2" d="M0.43 0.07c0.01,0 0,0 0.01,-0.01 0.01,-0.01 0.01,-0.01 0.01,-0.02 -0.02,-0.02 -0.07,-0.03 -0.11,-0.01 -0.03,0.02 -0.05,0.07 -0.01,0.1 0.03,0.03 0.09,0.02 0.08,0.06 0,0.02 -0.02,0.03 -0.04,0.03 -0.03,0 -0.03,-0.02 -0.05,-0.03l-0.02 0.03c0.01,0.06 0.18,0.07 0.16,-0.05 -0.01,-0.05 -0.05,-0.05 -0.09,-0.07 -0.04,-0.02 0.02,-0.07 0.06,-0.03z"/>
   <path class="fil2" d="M0.92 0.02l0.1 0.25 0.02 -0.01c0.01,0 0.1,-0.22 0.11,-0.24 -0.06,0 -0.05,-0.01 -0.07,0.04 -0.01,0.03 -0.03,0.09 -0.05,0.12l-0.06 -0.16 -0.05 0z"/>
   <path class="fil2" d="M1.17 0.26l0.13 0 0 -0.04 -0.09 0c0,-0.01 0,-0.05 0,-0.07l0.09 0 0 -0.03c-0.03,0 -0.07,0 -0.09,-0.01l0 -0.05 0.09 0 0 -0.04 -0.13 0 0 0.24z"/>
   <path class="fil2" d="M0.66 0.2c-0.01,0 -0.02,0.02 -0.04,0.02 -0.1,0.02 -0.13,-0.12 -0.05,-0.16 0.05,-0.02 0.08,0.01 0.09,0.02l0 -0.05c-0.05,-0.02 -0.08,-0.02 -0.13,0 -0.02,0.02 -0.05,0.06 -0.05,0.11 0,0.05 0.03,0.09 0.06,0.11 0.04,0.02 0.08,0.02 0.12,0l0 -0.05z"/>
   <polygon class="fil2" points="0.23,0.26 0.28,0.26 0.28,0.02 0.23,0.02 "/>
  </g>
 </g>
</svg>
