<?xml version="1.0" encoding="UTF-8"?>
<!DOCTYPE svg PUBLIC "-//W3C//DTD SVG 1.1//EN" "http://www.w3.org/Graphics/SVG/1.1/DTD/svg11.dtd">
<!-- Creator: CorelDRAW -->
<svg xmlns="http://www.w3.org/2000/svg" xml:space="preserve" width="40px" height="15px" version="1.1" style="shape-rendering:geometricPrecision; text-rendering:geometricPrecision; image-rendering:optimizeQuality; fill-rule:evenodd; clip-rule:evenodd"
viewBox="0 0 1.18 0.45"
 xmlns:xlink="http://www.w3.org/1999/xlink"
 xmlns:xodm="http://www.corel.com/coreldraw/odm/2003">
 <defs>
  <style type="text/css">
   <![CDATA[
    .fil0 {fill:#221E1F}
    .fil1 {fill:#38A7E4}
    .fil2 {fill:#EF3120}
    .fil3 {fill:#FBC707}
   ]]>
  </style>
 </defs>
 <g id="Camada_x0020_1">
  <metadata id="CorelCorpID_0Corel-Layer"/>
  <path class="fil0" d="M0.57 0.25c-0.01,-0.01 0,-0.03 0.01,-0.04 0,-0.01 0.02,-0.02 0.03,-0.03 0.02,-0.01 0.05,-0.01 0.07,0.01 0,0 0.01,0.01 0.01,0.01l-0.12 0.05zm-0.04 0.08c0,0 0.02,-0.02 0.03,-0.02 0.03,-0.01 0.06,-0.02 0.09,-0.04 0.02,-0.01 0.04,-0.02 0.06,-0.02l0.05 -0.02c0,-0.01 0,-0.01 0.01,-0.01 0,0 0,0 0,0 0,-0.01 0,-0.02 -0.01,-0.03 0,-0.01 -0.01,-0.01 -0.01,-0.02l-0.02 -0.02c-0.01,0 -0.02,-0.01 -0.02,-0.01 -0.04,-0.02 -0.08,-0.03 -0.12,-0.01 -0.04,0.01 -0.06,0.04 -0.08,0.08 -0.01,0.03 -0.01,0.06 0,0.09 0.01,0.01 0.01,0.01 0.01,0.02 0,0 0,0 0.01,0.01z"/>
  <path class="fil1" d="M0 0.22l0 0.01c0,0 0,0.01 0,0.01 0,0.03 0.01,0.06 0.02,0.09 0.01,0.01 0.02,0.03 0.03,0.04l0.01 0.01c0,0 0.01,0.01 0.02,0.01 0,0 0,0 0,0l0.01 -0.01c0,0 0,0 0,0l0.04 -0.05c0,0 0.01,0 0.01,-0.01 0,0 -0.01,0 -0.01,0l-0.01 -0.01c0,0 0,0 0,0 -0.04,-0.05 -0.04,-0.12 0,-0.17 0,0 0.01,-0.01 0.02,-0.01 0,-0.01 -0.01,-0.01 -0.01,-0.02 -0.01,0 -0.02,-0.01 -0.02,-0.01 0,-0.01 0,-0.01 0,-0.01 -0.01,0 -0.01,0 -0.01,-0.01l-0.01 -0.01c0,0 0,0 0,0l-0.01 -0.01c0,0 -0.01,0 -0.01,0 0,0 0,0 -0.01,0.01 0,0 -0.01,0.01 -0.01,0.02 -0.02,0.02 -0.04,0.05 -0.04,0.08 -0.01,0.01 -0.01,0.02 -0.01,0.03 0,0.01 0,0.02 0,0.02z"/>
  <path class="fil2" d="M0.23 0.45c0,0 0.01,0 0.01,0 0.01,0 0.02,0 0.03,-0.01 0.04,0 0.06,-0.02 0.09,-0.03 0.01,-0.01 0.01,-0.01 0.02,-0.02 0.01,-0.01 0.02,-0.02 0.03,-0.03 0.01,-0.03 0.03,-0.06 0.04,-0.09l-0.1 -0.02c0,0.03 -0.02,0.06 -0.04,0.08 -0.02,0.01 -0.04,0.02 -0.06,0.03 -0.02,0 -0.04,0 -0.06,-0.01 0,0 0,0 -0.01,0 0,0 -0.01,0.04 -0.01,0.04 0,0.01 -0.02,0.05 -0.02,0.05 0.02,0 0.02,0 0.03,0.01 0.01,0 0.01,0 0.02,0 0,0 0.01,0 0.01,0l0.02 0z"/>
  <path class="fil3" d="M0.21 0c0,0 -0.02,0 -0.02,0 -0.01,0 -0.03,0.01 -0.04,0.01l0.03 0.09c0.01,0 0.01,0 0.01,0 0.04,-0.01 0.08,0 0.12,0.02 0,0 0,0 0,0 0,0 0.01,0.01 0.01,0.01 0,0 0,0 0,0 0,0 0,0 0,0 0.01,0.02 0.03,0.03 0.03,0.05 0,0.01 0,0.02 0.01,0.02l0.09 -0.02c0,-0.01 -0.01,-0.03 -0.01,-0.04 -0.01,-0.01 -0.01,-0.02 -0.02,-0.03 -0.01,-0.01 -0.01,-0.02 -0.02,-0.03l0 0c-0.02,-0.02 -0.03,-0.03 -0.05,-0.04 -0.02,-0.02 -0.05,-0.03 -0.08,-0.04l-0.03 0 -0.03 0z"/>
  <path class="fil0" d="M0.8 0.06c0,0 0,0.02 0,0.02l0 0.24c0,0.01 0,0.02 0.01,0.04 0,0 0.01,0 0.01,0.01 0.01,0 0.01,0 0.02,0.01l0.03 0.01c0,0 0.01,0 0.01,0l0.02 -0.05 -0.04 -0.02 0 -0.26 -0.06 0z"/>
  <path class="fil0" d="M0.99 0.31c0,0 0,0 -0.01,-0.01 -0.02,-0.02 -0.02,-0.05 -0.01,-0.08 0.01,-0.01 0.02,-0.02 0.02,-0.02 0,0 0,-0.01 0,-0.01 0,0 -0.01,0 -0.01,0l-0.03 -0.04c0,0 -0.01,0.01 -0.01,0.02 -0.04,0.04 -0.05,0.1 -0.02,0.15 0,0.01 0.01,0.01 0.01,0.02 0,0 0.02,0.02 0.02,0.02 0,0 0,0 0,-0.01l0.01 0c0,0 0,0 0,-0.01l0.01 -0.01c0.01,0 0.02,-0.02 0.02,-0.02z"/>
  <path class="fil0" d="M1.18 0.23l0 0 -0.01 -0.02c0,0 0,-0.01 0,-0.01 -0.01,-0.01 -0.01,-0.02 -0.02,-0.02 0,-0.01 -0.01,-0.02 -0.01,-0.02l-0.01 -0.01c0,0 -0.01,0 -0.01,-0.01 -0.03,-0.02 -0.06,-0.02 -0.09,-0.02 -0.01,0 -0.03,0 -0.03,0.01l0.01 0.04c0,0 0.01,0.01 0.01,0.01 0.01,0 0.02,0 0.03,0 0.01,0 0.02,0.01 0.03,0.01 0.01,0.01 0.03,0.03 0.03,0.05 0.01,0 0.03,0 0.03,-0.01 0.01,0 0.02,0 0.04,0z"/>
  <path class="fil0" d="M1.18 0.28l0 0 -0.07 -0.01c0,0.01 0,0.02 -0.01,0.03 -0.01,0.02 -0.04,0.03 -0.07,0.03 -0.01,0 -0.01,0 -0.01,0l-0.02 0.06c0,0 0.02,0 0.03,0 0.01,0 0.02,0 0.03,0 0.03,0 0.05,-0.01 0.07,-0.03 0.02,-0.01 0.03,-0.04 0.04,-0.06l0.01 -0.02z"/>
  <path class="fil0" d="M0.64 0.39c0.02,0 0.05,-0.01 0.07,-0.02 0.01,0 0.01,0 0.02,-0.01 0,0 0,0 0.01,0 0,-0.01 0.01,-0.02 0.01,-0.03l-0.05 -0.03c0,0 0,0 0,0 -0.01,0.02 -0.03,0.03 -0.04,0.03 -0.01,0 -0.02,0 -0.04,0 0,0 -0.01,0 -0.01,0 -0.01,-0.01 -0.01,-0.01 -0.01,-0.01 0,0 -0.01,0.01 -0.01,0.01 0,0.01 -0.01,0.01 -0.01,0.01 0,0.01 -0.01,0.03 -0.01,0.03 0,0 0,0 0,0 0.02,0.02 0.05,0.02 0.07,0.02z"/>
 </g>
</svg>
