<?xml version="1.0" encoding="UTF-8"?>
<!DOCTYPE svg PUBLIC "-//W3C//DTD SVG 1.1//EN" "http://www.w3.org/Graphics/SVG/1.1/DTD/svg11.dtd">
<!-- Creator: CorelDRAW -->
<svg xmlns="http://www.w3.org/2000/svg" xml:space="preserve" width="103px" height="39px" version="1.1" style="shape-rendering:geometricPrecision; text-rendering:geometricPrecision; image-rendering:optimizeQuality; fill-rule:evenodd; clip-rule:evenodd"
viewBox="0 0 7.46 2.85"
 xmlns:xlink="http://www.w3.org/1999/xlink"
 xmlns:xodm="http://www.corel.com/coreldraw/odm/2003">
 <defs>
  <style type="text/css">
   <![CDATA[
    .fil0 {fill:#221E1F}
    .fil1 {fill:#38A7E4}
    .fil2 {fill:#EF3120}
    .fil3 {fill:#FBC707}
   ]]>
  </style>
 </defs>
 <g id="Camada_x0020_1">
  <metadata id="CorelCorpID_0Corel-Layer"/>
  <path class="fil0" d="M3.6 1.62c-0.02,-0.11 0.01,-0.22 0.06,-0.3 0.05,-0.07 0.12,-0.13 0.2,-0.16 0.16,-0.07 0.33,-0.06 0.46,0.05 0.01,0.01 0.06,0.05 0.06,0.07l-0.78 0.34zm-0.27 0.45c0.02,0 0.18,-0.07 0.2,-0.08 0.2,-0.09 0.39,-0.18 0.59,-0.26 0.13,-0.06 0.27,-0.12 0.39,-0.17l0.3 -0.13c0.01,-0.01 0.03,-0.01 0.05,-0.02 0.01,-0.01 0.04,-0.02 0.05,-0.02 -0.02,-0.05 -0.05,-0.12 -0.08,-0.17 -0.02,-0.05 -0.06,-0.1 -0.09,-0.14l-0.11 -0.13c-0.04,-0.03 -0.1,-0.07 -0.15,-0.09 -0.22,-0.13 -0.51,-0.15 -0.77,-0.04 -0.21,0.09 -0.37,0.26 -0.45,0.49 -0.08,0.2 -0.08,0.4 -0.01,0.6 0.02,0.05 0.04,0.08 0.06,0.12 0.01,0.01 0.02,0.03 0.02,0.04z"/>
  <path class="fil1" d="M0 1.38l0 0.09c0,0.01 0,0.07 0.01,0.08 0.01,0.18 0.06,0.36 0.14,0.52 0.05,0.09 0.12,0.2 0.19,0.28l0.03 0.04c0.02,0.02 0.09,0.09 0.11,0.1 0.01,0 0.01,0 0.01,-0.01l0.05 -0.05c0.01,-0.01 0.01,-0.01 0.01,-0.02l0.28 -0.31c0.02,-0.01 0.03,-0.03 0.04,-0.04 0,-0.01 -0.02,-0.03 -0.03,-0.03l-0.05 -0.06c-0.01,-0.01 -0.02,-0.02 -0.03,-0.03 -0.23,-0.3 -0.23,-0.73 0,-1.02 0.02,-0.03 0.09,-0.11 0.11,-0.12 0,-0.01 -0.05,-0.06 -0.06,-0.07 -0.02,-0.03 -0.08,-0.1 -0.11,-0.12 0,-0.01 -0.01,-0.02 -0.02,-0.03 -0.02,-0.02 -0.03,-0.04 -0.05,-0.06l-0.06 -0.07c-0.01,0 -0.01,0 -0.01,-0.01l-0.08 -0.08c0,0 -0.04,0.03 -0.05,0.04 -0.01,0.01 0,0 -0.02,0.02 -0.02,0.02 -0.09,0.11 -0.11,0.13 -0.11,0.14 -0.21,0.32 -0.25,0.5 -0.02,0.09 -0.04,0.15 -0.04,0.24 -0.01,0.02 -0.01,0.08 -0.01,0.09z"/>
  <path class="fil2" d="M1.47 2.85c0.01,0 0.05,0 0.07,0 0.07,-0.01 0.14,-0.02 0.2,-0.03 0.2,-0.05 0.38,-0.13 0.54,-0.25 0.05,-0.04 0.08,-0.06 0.13,-0.11 0.07,-0.06 0.13,-0.13 0.18,-0.21 0.11,-0.14 0.21,-0.35 0.24,-0.54l-0.58 -0.12c-0.03,0.19 -0.15,0.38 -0.3,0.49 -0.11,0.09 -0.23,0.15 -0.39,0.17 -0.12,0.02 -0.24,0.02 -0.35,-0.02 -0.02,0 -0.03,-0.01 -0.05,-0.01 -0.01,0.01 -0.08,0.24 -0.09,0.28 -0.01,0.02 -0.09,0.27 -0.09,0.28 0.07,0.02 0.09,0.03 0.18,0.05 0.03,0 0.06,0.01 0.1,0.01 0.02,0 0.09,0.01 0.1,0.01l0.11 0z"/>
  <path class="fil3" d="M1.31 0c-0.01,0 -0.07,0.01 -0.09,0.01 -0.05,0.01 -0.22,0.04 -0.24,0.06l0.18 0.56c0.01,-0.01 0.03,-0.01 0.05,-0.02 0.26,-0.07 0.53,-0.01 0.74,0.16 0.01,0 0.01,0.01 0.02,0.01 0.01,0.01 0.03,0.03 0.04,0.04 0.01,0.01 0.01,0.01 0.02,0.01 0,0.01 0.01,0.01 0.01,0.02 0.08,0.09 0.15,0.19 0.19,0.32 0.01,0.02 0.02,0.08 0.02,0.09l0.58 -0.12c0,-0.05 -0.05,-0.19 -0.07,-0.23 -0.03,-0.08 -0.06,-0.14 -0.1,-0.21 -0.04,-0.06 -0.08,-0.12 -0.12,-0.18l-0.03 -0.03c-0.08,-0.1 -0.18,-0.18 -0.29,-0.25 -0.16,-0.11 -0.35,-0.19 -0.54,-0.22l-0.13 -0.02 -0.24 0z"/>
  <path class="fil0" d="M5.09 0.38c-0.01,0.02 -0.01,0.13 -0.01,0.16l0 1.46c0,0.11 0.01,0.19 0.07,0.26 0.01,0.03 0.04,0.05 0.06,0.07 0.05,0.04 0.06,0.04 0.13,0.07l0.17 0.07c0.02,0.01 0.04,0.02 0.06,0.02l0.14 -0.34 -0.25 -0.1 -0.01 -1.67 -0.36 0z"/>
  <path class="fil0" d="M6.29 1.97c-0.03,-0.02 -0.03,-0.02 -0.06,-0.06 -0.11,-0.14 -0.13,-0.34 -0.05,-0.5 0.04,-0.1 0.1,-0.13 0.11,-0.15 0,0 -0.03,-0.03 -0.03,-0.03 -0.01,-0.01 -0.02,-0.02 -0.02,-0.02l-0.21 -0.24c-0.02,0 -0.08,0.07 -0.09,0.09 -0.23,0.26 -0.28,0.63 -0.12,0.94 0.03,0.06 0.05,0.1 0.09,0.15 0.02,0.02 0.1,0.11 0.12,0.12 0,0 0.01,-0.01 0.01,-0.02l0.05 -0.05c0,-0.01 0.01,-0.01 0.01,-0.01l0.07 -0.09c0.02,-0.02 0.11,-0.12 0.12,-0.13z"/>
  <path class="fil0" d="M7.46 1.45l0 -0.01 -0.03 -0.09c-0.01,-0.03 -0.02,-0.06 -0.03,-0.08 -0.03,-0.06 -0.05,-0.11 -0.09,-0.15 -0.01,-0.02 -0.06,-0.09 -0.07,-0.1l-0.05 -0.04c-0.04,-0.04 -0.06,-0.06 -0.11,-0.09 -0.17,-0.11 -0.36,-0.16 -0.56,-0.14 -0.05,0.01 -0.16,0.03 -0.19,0.04l0.09 0.28c0.01,0.02 0.02,0.09 0.03,0.1 0.09,-0.02 0.13,-0.03 0.23,-0.02 0.07,0.01 0.13,0.04 0.18,0.07 0.09,0.06 0.18,0.16 0.2,0.3 0.02,0.01 0.17,-0.03 0.2,-0.03 0.07,-0.02 0.13,-0.03 0.2,-0.04z"/>
  <path class="fil0" d="M7.46 1.8l0 0 -0.4 -0.08c-0.01,0.07 -0.04,0.13 -0.07,0.17 -0.1,0.14 -0.26,0.22 -0.44,0.2 -0.06,-0.01 -0.06,-0.01 -0.1,-0.02l-0.13 0.38c0.03,0.01 0.16,0.03 0.2,0.04 0.07,0 0.14,0 0.22,-0.01 0.16,-0.02 0.29,-0.09 0.4,-0.18 0.14,-0.1 0.24,-0.25 0.29,-0.41l0.03 -0.09z"/>
  <path class="fil0" d="M4.07 2.49c0.14,0 0.32,-0.05 0.43,-0.12 0.06,-0.03 0.08,-0.05 0.13,-0.08 0.01,-0.02 0.02,-0.03 0.03,-0.04 0.03,-0.02 0.12,-0.12 0.13,-0.15l-0.32 -0.21c-0.01,0.01 -0.02,0.02 -0.03,0.03 -0.06,0.09 -0.16,0.15 -0.26,0.17 -0.07,0.02 -0.15,0.03 -0.22,0.01 -0.03,0 -0.06,-0.01 -0.09,-0.03 -0.04,-0.02 -0.05,-0.03 -0.07,-0.05 -0.01,0.01 -0.05,0.07 -0.06,0.08 -0.02,0.03 -0.03,0.05 -0.05,0.08 -0.01,0.01 -0.1,0.15 -0.11,0.16 0.01,0.01 0.04,0.02 0.05,0.03 0.13,0.08 0.29,0.12 0.44,0.12z"/>
 </g>
</svg>
