<?xml version="1.0" encoding="UTF-8"?>
<!DOCTYPE svg PUBLIC "-//W3C//DTD SVG 1.1//EN" "http://www.w3.org/Graphics/SVG/1.1/DTD/svg11.dtd">
<!-- Creator: CorelDRAW -->
<svg xmlns="http://www.w3.org/2000/svg" xml:space="preserve" width="33px" height="25px" version="1.1" style="shape-rendering:geometricPrecision; text-rendering:geometricPrecision; image-rendering:optimizeQuality; fill-rule:evenodd; clip-rule:evenodd"
viewBox="0 0 0.86 0.65"
 xmlns:xlink="http://www.w3.org/1999/xlink"
 xmlns:xodm="http://www.corel.com/coreldraw/odm/2003">
 <defs>
  <style type="text/css">
   <![CDATA[
    .fil1 {fill:#034B91}
    .fil2 {fill:#38A338}
    .fil3 {fill:#57B06D}
    .fil0 {fill:#C01633}
   ]]>
  </style>
    <mask id="id0">
  <linearGradient id="id1" gradientUnits="userSpaceOnUse" x1="0.07" y1="0.32" x2="0.39" y2="0.32">
   <stop offset="0" style="stop-opacity:1; stop-color:white"/>
   <stop offset="0.392157" style="stop-opacity:0.901961; stop-color:white"/>
   <stop offset="0.568627" style="stop-opacity:0.8; stop-color:white"/>
   <stop offset="0.858824" style="stop-opacity:0.168627; stop-color:white"/>
   <stop offset="1" style="stop-opacity:0.380392; stop-color:white"/>
  </linearGradient>
     <rect style="fill:url(#id1)" width="0.27" height="0.65"/>
    </mask>
 </defs>
 <g id="Camada_x0020_1">
  <metadata id="CorelCorpID_0Corel-Layer"/>
  <g id="_2847423187488">
   <path class="fil0" d="M0.42 0.65c0.01,0 0.03,0 0.04,0 0.01,0 0.01,0 0.02,0 0,-0.01 0.01,-0.01 0.01,-0.01 0.01,0 0.01,0 0.02,-0.01 0.01,0 0.02,-0.01 0.03,-0.03 0.02,-0.01 0.02,-0.03 0.02,-0.06l0 -0.54 -0.07 0 -0.07 0c-0.01,0 -0.01,0 -0.02,0 -0.01,0 -0.01,0 -0.02,0 0,0 -0.01,0 -0.01,0.01 0,0 -0.01,0 -0.02,0 0,0.01 -0.01,0.01 -0.01,0.01 0,0 0,0.01 -0.01,0.01 0,0 0,0 0,0l0 0.01c-0.01,0 -0.02,0.02 -0.02,0.03 -0.01,0.02 -0.01,0.03 -0.01,0.06l0 0.09c0,0.01 0,0.02 0,0.03l0.01 -0.01c0,0 0.01,0 0.02,-0.01l0.01 0c0.01,-0.01 0.03,-0.01 0.04,-0.01 0.02,0 0.03,-0.01 0.05,-0.01l0.01 0c0.02,0 0.04,0.01 0.05,0.01 0.01,0 0.02,0 0.02,0 0.01,0 0.01,0 0.02,0.01 0,0 0,0 0,0l0 0.04 -0.01 0c0,-0.01 -0.01,-0.01 -0.01,-0.01 -0.01,0 -0.03,-0.01 -0.04,-0.01 0,0 -0.01,0 -0.02,0 0,0 -0.01,0 -0.02,0 -0.04,0 -0.07,0.03 -0.07,0.07 0,0.05 0.03,0.07 0.07,0.08 0.01,0 0.02,0 0.02,0 0.01,0 0.02,0 0.02,-0.01 0.01,0.01 0.03,0 0.04,0 0.01,-0.01 0.02,-0.01 0.02,-0.02l0 0.05c0,0 0,0 -0.01,0 -0.01,0 -0.02,0.01 -0.03,0.01 -0.01,0 -0.02,0 -0.03,0 -0.01,0 -0.03,0 -0.04,0 -0.01,0 -0.01,0 -0.02,0 0,0 -0.01,0 -0.02,0 0,0 -0.02,0 -0.03,0 0,-0.01 -0.01,-0.01 -0.02,-0.01 -0.01,-0.01 -0.01,-0.01 -0.02,-0.02 -0.01,0 -0.01,0 -0.01,0l0 0.25 0.03 0 0.05 0 0.04 0z"/>
   <path class="fil1" style="mask:url(#id0)" d="M0.09 0.43l0 0 0 0c-0.01,0 -0.04,0 -0.05,0 -0.01,0 -0.01,0 -0.02,-0.01 0,0 -0.01,0 -0.01,0 0,0 -0.01,0 -0.01,0l0 0.23 0.09 0 0.06 0c0.02,0 0.03,-0.01 0.04,-0.01 0.04,-0.01 0.06,-0.04 0.07,-0.07 0.01,-0.02 0.01,-0.03 0.01,-0.05l0 -0.52 -0.08 0 -0.08 0c-0.03,0 -0.05,0.01 -0.07,0.02 0,0 0,0 0,0.01 0,0 -0.01,0 -0.01,0.01 -0.01,0.01 -0.02,0.02 -0.02,0.04 -0.01,0.01 -0.01,0.03 -0.01,0.05 0,0.08 0,0.16 0,0.24l0.01 0.01c0.03,0.01 0.06,0.02 0.09,0.02 0,0 0.01,0 0.01,0 0.01,-0.01 0.03,-0.01 0.03,-0.03 0.01,-0.01 0.01,-0.02 0.01,-0.04 0,0 0,-0.11 0,-0.11l0.09 0 0 0.11c0,0.01 0,0.03 0,0.04 0,0.02 -0.02,0.03 -0.03,0.04 -0.01,0.01 -0.02,0.01 -0.03,0.01 0,0 -0.01,0.01 -0.01,0.01 -0.01,0 -0.01,0 -0.02,0 -0.01,0 -0.02,0 -0.03,0 0,0 -0.01,0 -0.02,0 0,0 -0.01,0 -0.01,0zm0 0l0 0.22"/>
   <path class="fil2" d="M0.75 0.65c0.01,0 0.02,0 0.03,-0.01 0.01,0 0.03,-0.01 0.03,-0.01 0.01,0 0.02,-0.01 0.02,-0.02 0.01,-0.01 0.02,-0.01 0.02,-0.02 0.01,-0.03 0.01,-0.05 0.01,-0.08l0 -0.51 -0.05 0 -0.07 0 -0.04 0c-0.05,0 -0.08,0.03 -0.09,0.07 -0.01,0.02 -0.01,0.04 -0.01,0.07l0 0.06c0,0.01 0,0.01 0,0.02 0,0 0.1,0 0.12,0 0.01,0 0.04,0 0.05,0 0.02,0 0.03,0.01 0.03,0.02 0.01,0 0.01,0 0.01,0 0,0 0,0 0,0 0,0.01 0.01,0.01 0.01,0.02 0,0.01 0,0.02 -0.01,0.04 -0.01,0.01 -0.02,0.02 -0.03,0.02l-0.01 0c0,0 0,0 0,0 0,0 0,0 0,0 0.02,0 0.02,0.01 0.03,0.01 0.01,0 0.02,0.01 0.03,0.02 0.01,0.02 0,0.04 -0.01,0.06 0,0 -0.01,0 -0.01,0 0,0 0,0.01 0,0.01 -0.01,0 -0.01,0 -0.01,0 -0.01,0 -0.01,0 -0.02,0.01 -0.01,0 -0.02,0 -0.03,0l-0.04 0 -0.11 0 0 0.22 0.11 0 0.04 0zm-0.1 -0.26l0.04 0c0.01,0 0.02,0 0.03,0 0,0 0.01,0 0.01,0 0.01,-0.01 0.01,-0.03 0.01,-0.04 -0.01,-0.01 -0.01,-0.01 -0.02,-0.01 0,0 -0.01,0 -0.02,0 0,0 -0.04,0 -0.05,0l0 0 0 0.05zm0 -0.05l0 0.05c0,0 0,0 0,0 0,-0.02 0,-0.04 0,-0.05 0,0 0,0 0,0zm0.06 -0.04c0,0 0.01,0 0.01,0 0,0 0.01,0 0.01,0 0,-0.01 0.01,-0.02 0,-0.03 0,-0.01 -0.01,-0.02 -0.02,-0.02l-0.06 0 0 0.05 0.06 0z"/>
   <path class="fil3" d="M0.71 0.3l-0.06 0 0 -0.05 0.06 0c0,0 0,0 -0.01,0 0,0 -0.05,0 -0.05,0l0 0.05c0,0 0.02,0 0.03,0 0,0 0.03,0 0.03,0z"/>
  </g>
 </g>
</svg>
