<?xml version="1.0" encoding="UTF-8"?>
<!DOCTYPE svg PUBLIC "-//W3C//DTD SVG 1.1//EN" "http://www.w3.org/Graphics/SVG/1.1/DTD/svg11.dtd">
<!-- Creator: CorelDRAW -->
<svg xmlns="http://www.w3.org/2000/svg" xml:space="preserve" width="60px" height="45px" version="1.1" style="shape-rendering:geometricPrecision; text-rendering:geometricPrecision; image-rendering:optimizeQuality; fill-rule:evenodd; clip-rule:evenodd" viewBox="0 0 2.77 2.08"
  xmlns:xlink="http://www.w3.org/1999/xlink"
  xmlns:xodm="http://www.corel.com/coreldraw/odm/2003">
  <defs>
    <style type="text/css">
      <![CDATA[
    .fil1 {fill:#034B91}
    .fil2 {fill:#38A338}
    .fil3 {fill:#57B06D}
    .fil0 {fill:#C01633}
   ]]>
    </style>
    <mask id="id0">
      <linearGradient id="id1" gradientUnits="userSpaceOnUse" x1="0.23" y1="1.02" x2="1.25" y2="1.02">
        <stop offset="0" style="stop-opacity:1; stop-color:white"/>
        <stop offset="0.392157" style="stop-opacity:0.901961; stop-color:white"/>
        <stop offset="0.568627" style="stop-opacity:0.8; stop-color:white"/>
        <stop offset="0.858824" style="stop-opacity:0.168627; stop-color:white"/>
        <stop offset="1" style="stop-opacity:0.380392; stop-color:white"/>
      </linearGradient>
      <rect style="fill:url(#id1)" width="0.86" height="2.08"/>
    </mask>
  </defs>
  <g id="Camada_x0020_1">
    <metadata id="CorelCorpID_0Corel-Layer"/>
    <g id="_2848387522896">
      <path class="fil0" d="M1.35 2.08c0.05,0 0.09,0 0.13,0 0.02,0 0.03,0 0.05,-0.01 0.01,0 0.04,0 0.05,-0.01 0.01,0 0.04,-0.01 0.05,-0.02 0.04,-0.02 0.09,-0.06 0.12,-0.1 0.04,-0.06 0.07,-0.12 0.07,-0.22l0 -1.72 -0.23 0 -0.24 0c-0.02,0 -0.04,0 -0.06,0 -0.03,0 -0.05,0.01 -0.07,0.01 0,0 -0.02,0.01 -0.02,0.01 -0.03,0.01 -0.05,0.02 -0.07,0.03 -0.01,0.01 -0.03,0.02 -0.04,0.02 0,0.01 -0.01,0.01 -0.02,0.02 0,0 -0.01,0.01 -0.01,0.02l-0.01 0.01c-0.03,0.02 -0.06,0.07 -0.07,0.11 -0.02,0.06 -0.02,0.11 -0.02,0.17l0 0.3c0,0.03 0,0.07 0,0.1l0.02 -0.02c0.03,-0.02 0.04,-0.02 0.08,-0.04l0.04 -0.01c0.04,-0.02 0.08,-0.03 0.12,-0.03 0.06,-0.01 0.11,-0.01 0.16,-0.01l0.02 0c0.07,0 0.13,0 0.19,0.02 0.02,0 0.04,0 0.07,0.01 0.01,0 0.02,0 0.03,0 0,0.01 0.03,0.01 0.03,0.01l0 0.15 -0.05 -0.02c-0.01,-0.01 -0.03,-0.02 -0.04,-0.02 -0.02,-0.01 -0.09,-0.03 -0.1,-0.03 -0.01,0 -0.06,-0.01 -0.07,-0.01 -0.03,0 -0.05,0 -0.08,0 -0.13,0.02 -0.22,0.09 -0.22,0.24 0,0.15 0.08,0.23 0.22,0.24 0.03,0 0.05,0 0.08,0 0.01,0 0.06,-0.01 0.07,-0.01 0.01,0 0.08,-0.02 0.1,-0.03 0.03,-0.01 0.06,-0.02 0.09,-0.04l0 0.15c-0.01,0 -0.02,0 -0.04,0.01 -0.03,0.01 -0.06,0.01 -0.1,0.02 -0.04,0 -0.07,0.01 -0.11,0.01 -0.04,0 -0.08,0 -0.12,0 -0.02,0 -0.04,0 -0.06,0 -0.02,0 -0.04,0 -0.06,-0.01 -0.01,0 -0.08,-0.01 -0.09,-0.01 -0.03,-0.01 -0.06,-0.02 -0.08,-0.03 -0.04,-0.02 -0.04,-0.02 -0.08,-0.04 -0.01,-0.01 -0.01,-0.01 -0.02,-0.02l0 0.8 0.1 0 0.16 0 0.13 0z"/>
      <path class="fil1" style="mask:url(#id0)" d="M0.28 1.39l-0.01 0 0 0c-0.02,0 -0.11,-0.01 -0.14,-0.02 -0.02,0 -0.04,0 -0.06,-0.01 -0.01,0 -0.03,0 -0.04,0 -0.01,-0.01 -0.02,-0.01 -0.03,-0.01l0 0.73 0.27 0 0.22 0c0.05,0 0.09,-0.01 0.14,-0.02 0.1,-0.04 0.19,-0.13 0.21,-0.24 0.02,-0.05 0.02,-0.09 0.02,-0.14l0 -1.68 -0.26 0 -0.25 0c-0.08,0 -0.15,0.02 -0.21,0.07 -0.01,0.01 -0.01,0.01 -0.02,0.01 -0.01,0.01 -0.02,0.03 -0.03,0.04 -0.03,0.03 -0.06,0.08 -0.07,0.12 -0.02,0.06 -0.02,0.12 -0.02,0.19 0,0.25 0,0.51 0,0.77l0.04 0.02c0.08,0.04 0.17,0.06 0.27,0.06 0.02,0 0.03,0 0.05,-0.01 0.04,-0.01 0.08,-0.03 0.1,-0.07 0.03,-0.04 0.03,-0.08 0.03,-0.14 0,-0.01 0,-0.35 0,-0.35l0.29 0 0 0.36c0,0.04 0,0.07 -0.01,0.11 -0.01,0.07 -0.05,0.11 -0.1,0.14 -0.02,0.02 -0.05,0.03 -0.08,0.04 -0.01,0 -0.03,0.01 -0.05,0.01 -0.01,0.01 -0.03,0.01 -0.05,0.01 -0.03,0.01 -0.06,0.01 -0.1,0.01 -0.02,0 -0.04,0 -0.06,0 -0.01,0 -0.03,0 -0.05,0zm-0.01 0l0 0.69"/>
      <path class="fil2" d="M2.41 2.08c0.04,0 0.08,0 0.11,-0.01 0.03,-0.01 0.07,-0.03 0.09,-0.04 0.02,-0.01 0.05,-0.04 0.06,-0.06 0.03,-0.03 0.05,-0.05 0.07,-0.09 0.04,-0.08 0.03,-0.15 0.03,-0.24l0 -1.64 -0.16 0 -0.22 0 -0.13 0c-0.16,0.01 -0.27,0.1 -0.31,0.21 -0.04,0.08 -0.03,0.15 -0.03,0.23l0 0.2c0,0.02 0,0.05 0,0.07 0,0 0.34,0 0.38,0 0.06,0 0.13,-0.01 0.19,0 0.03,0.01 0.07,0.03 0.1,0.05 0,0 0,0.01 0.01,0.01 0,0 0.01,0.01 0.01,0.01 0,0.01 0.01,0.02 0.02,0.04 0.01,0.04 0,0.1 -0.02,0.13 -0.02,0.04 -0.06,0.06 -0.11,0.08l-0.02 0c0,0 0,0 0,0 0,0 0.01,0 0.01,0 0.04,0.01 0.06,0.02 0.1,0.03 0.02,0.02 0.05,0.04 0.07,0.07 0.03,0.06 0.02,0.13 -0.03,0.18 -0.01,0.01 -0.02,0.02 -0.02,0.02 -0.01,0 -0.01,0.01 -0.02,0.01 -0.01,0 -0.01,0.01 -0.02,0.01 -0.02,0.01 -0.03,0.01 -0.05,0.02 -0.04,0.01 -0.07,0 -0.11,0l-0.14 0 -0.35 0 0 0.71 0.35 0 0.14 0zm-0.32 -0.82l0.13 0c0.02,0 0.06,0 0.08,0 0.03,0 0.04,-0.01 0.06,-0.02 0.02,-0.03 0.03,-0.08 0.01,-0.12 -0.01,-0.01 -0.03,-0.03 -0.05,-0.03 -0.02,-0.01 -0.05,-0.01 -0.07,-0.01 -0.01,0 -0.13,0 -0.16,0l0 0 0 0.18zm0 -0.18l0 0.18c0,0 0,0 0,-0.01 0,-0.05 0,-0.11 0,-0.17 0,0 0,0 0,0zm0.19 -0.1c0.01,0 0.03,-0.01 0.03,-0.01 0.01,-0.01 0.02,-0.01 0.03,-0.02 0.02,-0.02 0.03,-0.06 0.01,-0.09 -0.01,-0.03 -0.05,-0.05 -0.08,-0.05l-0.18 0 0 0.17 0.19 0z"/>
      <path class="fil3" d="M2.28 0.98l-0.19 0 0 -0.17 0.18 0c0,0 0,0 -0.01,0 -0.02,0 -0.16,0 -0.17,0l0 0.17c0.01,0 0.08,0 0.09,0 0.02,0 0.1,0 0.1,0z"/>
    </g>
  </g>
</svg>
