<?xml version="1.0" encoding="UTF-8"?>
<!DOCTYPE svg PUBLIC "-//W3C//DTD SVG 1.1//EN" "http://www.w3.org/Graphics/SVG/1.1/DTD/svg11.dtd">
<!-- Creator: CorelDRAW -->
<svg xmlns="http://www.w3.org/2000/svg" xml:space="preserve" width="33px" height="26px" version="1.1" style="shape-rendering:geometricPrecision; text-rendering:geometricPrecision; image-rendering:optimizeQuality; fill-rule:evenodd; clip-rule:evenodd"
viewBox="0 0 0.81 0.64"
 xmlns:xlink="http://www.w3.org/1999/xlink"
 xmlns:xodm="http://www.corel.com/coreldraw/odm/2003">
 <defs>
  <style type="text/css">
   <![CDATA[
    .fil1 {fill:#ED3237}
    .fil2 {fill:#FEFEFE;fill-rule:nonzero}
    .fil0 {fill:#00AFEF;fill-opacity:0.619608}
   ]]>
  </style>
 </defs>
 <g id="Camada_x0020_1">
  <metadata id="CorelCorpID_0Corel-Layer"/>
  <path class="fil0" d="M0.57 0c0.13,0 0.24,0.11 0.24,0.24 0,0.14 -0.11,0.25 -0.24,0.25 -0.06,0 -0.12,-0.03 -0.16,-0.06 0.05,-0.05 0.08,-0.11 0.08,-0.18 0,-0.07 -0.04,-0.14 -0.09,-0.18 0.04,-0.05 0.1,-0.07 0.17,-0.07z"/>
  <path class="fil1" d="M0.24 0.01c0.14,0 0.25,0.11 0.25,0.24 0,0.13 -0.11,0.24 -0.25,0.24 -0.13,0 -0.24,-0.11 -0.24,-0.24 0,-0.13 0.11,-0.24 0.24,-0.24z"/>
  <path class="fil0" d="M0.57 0c0.13,0 0.24,0.11 0.24,0.24 0,0.14 -0.11,0.25 -0.24,0.25 -0.14,0 -0.25,-0.11 -0.25,-0.25 0,-0.13 0.11,-0.24 0.25,-0.24z"/>
  <path class="fil2" d="M0.03 0.54l0 -0.01 -0.02 0 0 0.11 0.02 0 0 -0.06c0,-0.02 0,-0.04 0.02,-0.04 0.02,0 0.03,0.02 0.03,0.04l0 0.06 0.01 0 0 -0.06c0,-0.02 0.01,-0.04 0.03,-0.04 0.02,0 0.02,0.02 0.02,0.04l0 0.06 0.02 0 0 -0.06c0,-0.03 -0.01,-0.05 -0.04,-0.05 -0.01,0 -0.02,0 -0.03,0.02 -0.01,-0.02 -0.02,-0.02 -0.03,-0.02 -0.02,0 -0.02,0 -0.03,0.01zm0.27 0.1l0 -0.11 -0.02 0 0 0.02c-0.01,-0.02 -0.02,-0.02 -0.04,-0.02 -0.03,0 -0.05,0.02 -0.05,0.05 0,0.02 0,0.03 0.01,0.04 0.01,0.02 0.03,0.02 0.04,0.02 0.02,0 0.03,-0.01 0.04,-0.02l0 0.02 0.02 0zm-0.06 -0.02c-0.02,0 -0.03,-0.01 -0.03,-0.04 0,-0.02 0.01,-0.04 0.03,-0.04 0.03,0 0.04,0.02 0.04,0.04 0,0.03 -0.01,0.04 -0.04,0.04zm0.1 -0.03l0.1 0 0 0c0,-0.04 -0.03,-0.06 -0.06,-0.06 -0.03,0 -0.06,0.02 -0.06,0.06 0,0.01 0.01,0.02 0.02,0.03 0.01,0.02 0.02,0.02 0.04,0.02 0.02,0 0.04,0 0.05,-0.02l-0.01 -0.01c-0.01,0.01 -0.02,0.02 -0.04,0.02 -0.02,0 -0.04,-0.02 -0.04,-0.04zm0 -0.01c0.01,-0.02 0.02,-0.04 0.04,-0.04 0.02,0 0.03,0.02 0.04,0.04l-0.08 0zm0.13 0.03l-0.02 0c0.01,0.02 0.02,0.03 0.04,0.03 0.03,0 0.04,-0.01 0.04,-0.03 0,-0.01 0,-0.02 -0.01,-0.02 0,-0.01 -0.01,-0.01 -0.02,-0.01 -0.02,-0.01 -0.03,-0.01 -0.03,-0.02 0,-0.01 0.01,-0.02 0.02,-0.02 0.02,0 0.02,0.01 0.02,0.02l0.02 0 0 0c0,-0.02 -0.01,-0.03 -0.04,-0.03 -0.02,0 -0.03,0.01 -0.03,0.03 0,0.02 0.01,0.02 0.03,0.03 0.01,0.01 0.02,0.01 0.02,0.02 0,0.01 0,0.02 -0.02,0.02 -0.01,0 -0.02,-0.01 -0.02,-0.02zm0.09 0.01c0,0.02 0.01,0.02 0.03,0.02l0.01 0 0 -0.02 -0.01 0c-0.01,0 -0.01,0 -0.01,-0.01l0 -0.06 0.02 0 0 -0.02 -0.02 0 0 -0.03 -0.02 0 0 0.03 -0.01 0 0 0.02 0.01 0 0 0.07zm0.06 0.02l0.02 0 0 -0.06c0,-0.02 0.01,-0.03 0.03,-0.03 0,0 0,0 0.01,0l0 -0.02c0,0 -0.01,0 -0.01,0 -0.01,0 -0.02,0 -0.03,0.01l0 -0.01 -0.02 0 0 0.11zm0.13 -0.11c-0.02,0 -0.03,0 -0.04,0.01 -0.02,0.01 -0.02,0.03 -0.02,0.04 0,0.02 0,0.04 0.02,0.05 0.01,0.01 0.02,0.01 0.04,0.01 0.01,0 0.02,0 0.04,-0.01 0.01,-0.01 0.01,-0.03 0.01,-0.05 0,-0.01 0,-0.03 -0.01,-0.04 -0.01,-0.01 -0.03,-0.01 -0.04,-0.01zm0 0.1c-0.03,0 -0.04,-0.02 -0.04,-0.05 0,-0.02 0.01,-0.04 0.04,-0.04 0.02,0 0.03,0.02 0.03,0.04 0,0.03 -0.01,0.05 -0.03,0.05z"/>
 </g>
</svg>
