<!DOCTYPE svg PUBLIC "-//W3C//DTD SVG 1.1//EN" "http://www.w3.org/Graphics/SVG/1.1/DTD/svg11.dtd">
<!-- Creator: CorelDRAW -->
<svg xmlns="http://www.w3.org/2000/svg" xml:space="preserve" width="40px" height="20px" version="1.1" style="shape-rendering:geometricPrecision; text-rendering:geometricPrecision; image-rendering:optimizeQuality; fill-rule:evenodd; clip-rule:evenodd" viewBox="0 0 23.44 17.68"
  xmlns:xlink="http://www.w3.org/1999/xlink"
  xmlns:xodm="http://www.corel.com/coreldraw/odm/2003">
  <defs>
    <style type="text/css">
      <![CDATA[
    .fil0 {fill:#FEFEFE;fill-rule:nonzero}
    .fil1 {fill:#6E4D8B;fill-rule:nonzero}
   ]]>
    </style>
  </defs>
  <g id="Camada_x0020_1">
    <metadata id="CorelCorpID_0Corel-Layer"/>
    <path class="fil0" d="M22.69 12.49c0,10.97 0,-24.55 0,0zm-0.06 -9.71l-2.11 0c-0.44,0 -0.81,0.38 -0.81,0.84l0 10.49 -1.75 0c-0.96,0 -1.75,-0.8 -1.75,-1.79l0 -8.7c0,-0.46 -0.36,-0.84 -0.81,-0.84l-2.1 0c-0.45,0 -0.81,0.38 -0.81,0.84 -0.01,3.79 0,9.35 0,9.35 0,2.92 3.19,4.71 5.48,4.71 1.54,0 2.49,-0.77 2.49,-2.01l0 -0.79 0.65 0c1.13,0 2.33,-1.23 2.33,-2.39l0 -8.87c0,-0.46 -0.36,-0.84 -0.81,-0.84l0 0 0 0zm-11.68 1.93c0,-2.92 -3.2,-4.71 -5.49,-4.71 -1.53,0 -2.49,0.77 -2.49,2.01l0 0.79 -0.64 0c-1.13,0 -2.33,1.23 -2.33,2.4l0 8.87c0,0.46 0.36,0.83 0.81,0.83l2.1 0c0.02,0 0.03,-0.01 0.04,-0.01 0.43,-0.02 0.77,-0.38 0.77,-0.82l0 -10.5 1.76 0c0.96,0 1.75,0.8 1.75,1.79l0 8.71c0,0.46 0.36,0.83 0.81,0.83l2.1 0c0.45,0 0.81,-0.37 0.81,-0.83 0,-3.87 0,-9.36 0,-9.36l0 0z" pagecolor="#ffffff"/>
    <path class="fil1" d="M22.69 12.49c0,0.72 -0.87,1.62 -1.58,1.62l-0.65 0c0.01,-4.46 0.01,-9.47 0,-10.36 0,0 0,0 0,0 0,-0.11 0.09,-0.2 0.2,-0.2l1.83 0c0.11,0 0.2,0.09 0.2,0.21l0 8.73zm-2.98 3.19c0,0.46 -0.22,1.23 -1.74,1.23 -2.93,0 -4.73,-2.29 -4.73,-3.94 0,0 0,-5.33 0,-9.21 0,0 0,-0.01 0,-0.01 0,-0.11 0.09,-0.2 0.2,-0.2l1.82 0c0.11,0 0.2,0.1 0.2,0.21l0 8.56c0,1.41 1.12,2.56 2.5,2.56l1.75 0 0 0.8zm2.92 -12.9l-2.11 0c-0.44,0 -0.81,0.38 -0.81,0.84l0 10.49 -1.75 0c-0.96,0 -1.75,-0.8 -1.75,-1.79l0 -8.7c0,-0.46 -0.36,-0.84 -0.81,-0.84l-2.1 0c-0.45,0 -0.81,0.38 -0.81,0.84 -0.01,3.79 0,9.35 0,9.35 0,2.92 3.19,4.71 5.48,4.71 1.54,0 2.49,-0.77 2.49,-2.01l0 -0.79 0.65 0c1.13,0 2.33,-1.23 2.33,-2.39l0 -8.87c0,-0.46 -0.36,-0.84 -0.81,-0.84l0 0 0 0zm-12.43 11.15c0,0 0,0 0,0 0,0.11 -0.09,0.2 -0.2,0.2l-1.82 0c-0.11,0 -0.2,-0.09 -0.2,-0.21l0 -8.56c0,-1.41 -1.12,-2.56 -2.5,-2.56l-1.75 0 0 -0.8c0,-0.46 0.22,-1.23 1.73,-1.23 2.94,0 4.74,2.3 4.74,3.94 0,0 0,5.36 0,9.22l0 0zm-9.25 0.2c-0.11,0 -0.2,-0.09 -0.2,-0.2l0 -8.73c0,-0.73 0.87,-1.63 1.58,-1.63l0.64 0c0,6.39 0,9.66 0,10.35 0,0.01 0,0.01 0,0.01 0,0.11 -0.08,0.2 -0.19,0.2l-1.83 0 0 0zm10 -9.42c0,-2.92 -3.2,-4.71 -5.49,-4.71 -1.53,0 -2.49,0.77 -2.49,2.01l0 0.79 -0.64 0c-1.13,0 -2.33,1.23 -2.33,2.4l0 8.87c0,0.46 0.36,0.83 0.81,0.83l2.1 0c0.02,0 0.03,-0.01 0.04,-0.01 0.43,-0.02 0.77,-0.38 0.77,-0.82l0 -10.5 1.76 0c0.96,0 1.75,0.8 1.75,1.79l0 8.71c0,0.46 0.36,0.83 0.81,0.83l2.1 0c0.45,0 0.81,-0.37 0.81,-0.83 0,-3.87 0,-9.36 0,-9.36l0 0z" pagecolor="#ffffff"/>
  </g>
</svg>
